<?xml version="1.0" encoding="UTF-8" standalone="no"?>
<!-- Created with Inkscape (http://www.inkscape.org/) -->

<svg
   version="1.1"
   id="svg118"
   width="473.33334"
   height="445.33334"
   viewBox="0 0 473.33334 445.33334"
   sodipodi:docname="cat_logo.png"
   inkscape:export-filename="cat_logo.svg"
   inkscape:export-xdpi="96"
   inkscape:export-ydpi="96"
   xmlns:inkscape="http://www.inkscape.org/namespaces/inkscape"
   xmlns:sodipodi="http://sodipodi.sourceforge.net/DTD/sodipodi-0.dtd"
   xmlns="http://www.w3.org/2000/svg"
   xmlns:svg="http://www.w3.org/2000/svg">
  <defs
     id="defs122" />
  <sodipodi:namedview
     id="namedview120"
     pagecolor="#ffffff"
     bordercolor="#000000"
     borderopacity="0.25"
     inkscape:showpageshadow="2"
     inkscape:pageopacity="0.0"
     inkscape:pagecheckerboard="0"
     inkscape:deskcolor="#d1d1d1"
     showgrid="false" />
  <g
     inkscape:groupmode="layer"
     inkscape:label="Image"
     id="g124">
    <path
       style="fill:#131f2c;stroke-width:1.33333"
       d="M 37.823216,443.57551 C 23.206945,439.62212 8.9302245,426.27957 2.9313512,410.96676 0.80701618,405.54415 0.04562118,400.65861 0.00912518,392.21613 -0.06297482,375.53676 4.4956412,364.81428 17.742379,350.50519 35.82984,330.96714 70.399726,324.06898 95.756297,334.93808 l 5.841783,2.50408 2.26265,-10.23771 c 10.74189,-48.60328 36.74096,-96.28239 72.2891,-132.56931 5.56669,-5.6824 9.87049,-10.51577 9.56398,-10.74085 -8.91869,-6.54936 -18.73918,-15.00659 -20.44028,-17.60279 -2.18208,-3.33026 -2.36594,-3.36106 -14.82989,-2.48494 -8.51523,0.59856 -12.62043,0.4301 -12.62043,-0.51788 0,-1.501 11.16254,-3.45946 18.33334,-3.21656 4.13556,0.14006 5.72681,-1.4201 3.10258,-3.04196 -0.67692,-0.41836 -1.62458,-2.55376 -2.10594,-4.74536 l -0.87519,-3.98471 h -21.2274 c -11.67506,0 -21.22739,-0.52271 -21.22739,-1.16156 0,-1.71911 12.30456,-3.08137 26.41931,-2.92496 6.83061,0.0757 12.88955,-0.153 13.46431,-0.50821 0.57476,-0.35523 0.67837,-2.90143 0.23026,-5.65824 -0.88013,-5.41477 -0.57729,-5.27888 -16.78054,-7.52934 -2.93334,-0.40741 -8.33334,-1.35606 -12,-2.10811 -3.66667,-0.75205 -8.72833,-1.56933 -11.24813,-1.81618 -2.5198,-0.24685 -4.83373,-1.20564 -5.14207,-2.13065 -0.87643,-2.62929 23.81686,0.0732 41.3902,4.5298 3.59242,0.91104 3.66666,0.80903 3.66666,-5.03897 v -5.96885 l -7.66666,-2.04513 c -4.21667,-1.12482 -12.29923,-3.0894 -17.96125,-4.36573 -9.5436,-2.15131 -12.76299,-4.63048 -5.96006,-4.58969 2.41666,0.0145 20.26903,3.58293 30.95153,6.18677 2.1585,0.52614 3.06128,-0.36028 4.52214,-4.44013 2.11765,-5.91418 8.4,-15.500439 13.5999,-20.752149 2.51374,-2.53879 5.50886,-9.32643 9.80947,-22.23053 7.24561,-21.74063 21.32729,-51.09067 27.81075,-57.9651403 9.45035,-10.02029 18.25196,-4.59004 29.24437,18.0426403 3.33226,6.86089 7.07944,15.77436 8.32708,19.80769 l 2.26843,7.33333 6.19383,0.0966 c 19.73466,0.30781 39.14848,3.4898 52.68714,8.63561 3.762,1.42987 7.63494,2.60007 8.60652,2.60044 0.9716,3.7e-4 6.0716,-2.79104 11.33334,-6.20313 33.59184,-21.78333 38.99192,-23.16777 42.30954,-10.84702 1.32526,4.92158 0.90828,23.29132 -0.75945,33.4581 -1.57675,9.61206 -2.25688,13.62844 -4.44483,26.247509 l -2.42529,13.98813 4.42997,12.67854 c 2.43648,6.9732 4.43603,14.56292 4.44343,16.86604 l 0.0135,4.18749 8.37844,0.12573 c 12.97437,0.19464 30.9804,4.08727 19.51045,4.21786 -26.68884,0.30382 -27.88892,0.42278 -27.88892,2.76439 0,1.26442 -0.33285,3.16635 -0.73968,4.22652 -0.5632,1.46766 0.92031,2.14779 6.21748,2.8505 3.82644,0.50758 12.70931,2.74904 19.73968,4.981 12.60644,4.0022 17.25499,6.30064 13.38252,6.6169 -2.30188,0.188 -1.69917,0.327 -15.93333,-3.67476 -15.35203,-4.31602 -23.9818,-5.32344 -25.4706,-2.97334 -2.1389,3.37626 -1.22234,4.78456 4.54818,6.98834 9.17526,3.50406 25.4187,12.32406 26.02024,14.12867 0.75666,2.26997 -2.74068,1.04944 -19.41497,-6.77564 l -13.77016,-6.46219 -3.90619,4.30552 -3.90618,4.30551 8.21944,3.91013 c 9.76696,4.64632 8.6502,5.7589 -2.39424,2.38524 l -7.92552,-2.42094 -7.33334,4.13212 c -4.03333,2.27266 -10.18333,4.92889 -13.66666,5.90273 -7.04123,1.96852 -7.3583,2.4596 -3.9853,6.17264 6.07696,6.68957 18.0064,23.85307 24.96478,35.91808 20.17805,34.98643 31.03525,69.5874 31.79666,101.33334 0.24491,10.21133 -1.45584,33.73638 -2.56922,35.53788 -1.46983,2.37822 2.00952,0.93668 9.58636,-3.97176 21.8929,-14.1827 37.85608,-33.7196 43.73968,-53.53183 2.87122,-9.66847 1.95132,-22.75591 -2.50835,-35.68631 -3.39915,-9.85552 -3.62471,-11.53315 -2.19305,-16.31159 1.93697,-6.46502 5.44966,-8.57077 12.69398,-7.60962 6.19223,0.82157 10.84283,5.3524 16.20573,15.78837 19.18614,37.33543 2.29756,82.42132 -43.46642,116.03823 -7.7186,5.66987 -22.38811,12.6246 -36.16808,17.14711 l -12.90323,4.23474 -1.5818,6.5937 c -1.77564,7.40168 -6.22416,13.41746 -12.43724,16.81897 -3.86485,2.11592 -15.54818,2.3074 -157.50784,2.58157 -132.203164,0.25532 -154.343904,0.0228 -160.666664,-1.68738 z m 268.677944,-6.94208 c -3.64586,-9.04332 -1.3587,-17.94746 6.27603,-24.43311 3.81539,-3.24115 4.04461,-3.98667 4.09967,-13.33333 0.032,-5.44512 -0.72862,-12.30023 -1.69042,-15.23356 -3.55622,-10.84598 -13.0308,-21.39771 -21.69656,-24.1632 -2.01666,-0.64358 -3.73674,-1.47014 -3.8224,-1.8368 -0.0856,-0.36667 1.18212,-5.15894 2.81728,-10.64947 6.3986,-21.48534 1.14022,-42.0845 -14.56598,-57.06068 -16.63991,-15.86651 -40.60355,-20.9881 -64.15955,-13.71239 -13.60288,4.20151 -13.87955,4.56483 -10.64186,13.97536 1.48822,4.32555 2.70584,9.90051 2.70584,12.38879 0,17.04577 -22.21822,23.67685 -30.76965,9.18326 l -2.75684,-4.67249 -7.45893,3.29869 c -12.1202,5.36012 -29.57339,17.73702 -41.30901,29.29419 -8.73169,8.59891 -11.30801,10.46487 -12.66667,9.17411 -3.06814,-2.91481 -15.408323,-8.71531 -22.632003,-10.63816 -9.006581,-2.39744 -29.032741,-2.42628 -37.939973,-0.0547 -16.820224,4.47855 -32.283865,17.15867 -39.496194,32.3867 -3.9096048,8.2547 -4.2916088,10.18552 -4.1719318,21.08673 0.09896,9.01373 0.808319,13.49313 2.8505003,18 6.2532375,13.8002 17.5186545,24.25125 29.6779615,27.53256 4.511495,1.21747 38.640316,1.64319 137.14873,1.71079 124.38756,0.0853 131.0942,-0.0301 130.20196,-2.24335 z M 337.012,195.20065 c 0.37372,-0.60471 -4.24086,-1.78895 -10.25465,-2.63167 -6.01377,-0.8427 -12.43413,-1.95201 -14.26747,-2.4651 -2.96408,-0.82955 -3.1357,-0.69186 -1.54925,1.24308 2.98303,3.63829 24.26071,6.78341 26.07137,3.85369 z m -51.40624,-24.64081 c 2.44706,-2.5442 3.90322,-4.96324 3.23591,-5.37567 -1.71144,-1.05773 -18.07628,-3.60403 -18.76116,-2.91916 -0.79188,0.79189 2.05711,8.63219 4.48101,12.33155 2.39215,3.65088 4.3321,2.94182 11.04424,-4.03672 z m -65.8067,1.77934 c 0.86578,-1.40088 -0.23267,-1.68377 -15.30918,-3.94264 -5.5,-0.82404 -11.35,-1.85284 -13,-2.2862 -5.43795,-1.42825 -3.12371,1.79523 3.33333,4.64295 6.73908,2.97211 23.46282,4.03401 24.97585,1.58589 z m 102.97037,-10.65844 c 4.12333,-2.51412 9.72045,-11.2503 9.72045,-15.17202 0,-1.04368 -1.35,-2.2594 -3,-2.70158 -5.9236,-1.58746 -7.42921,-0.96 -8.38136,3.49295 -1.2031,5.62667 -2.93673,7.66667 -6.51522,7.66667 -4.34352,0 -6.10342,-2.56238 -6.10342,-8.88643 0,-4.25057 -0.64896,-6.03373 -2.57008,-7.06188 -9.71881,-5.20135 -10.13097,12.87781 -0.48662,21.34567 5.33877,4.6875 11.09128,5.12438 17.33625,1.31662 z M 247.0484,147.04376 c 2.0171,-1.4363 5.11463,-5.33943 6.88343,-8.67366 3.70076,-6.97598 2.69472,-10.44916 -3.23183,-11.15749 -3.69144,-0.44119 -5.12473,1.53883 -6.80481,9.40051 -1.00221,4.68965 -6.10528,6.17881 -10.74836,3.13654 -2.78949,-1.82774 -3.32361,-3.2212 -3.32361,-8.67099 0,-6.88734 -1.1235,-8.11191 -7.44239,-8.11191 -2.89644,0 -3.22428,0.56727 -3.22428,5.57903 0,17.19489 15.38889,27.40086 27.89185,18.49797 z"
       id="path355" />
    <path
       style="fill:#ffffff;stroke-width:0.0755514"
       d="m 242.82219,383.12114 v -30.86275 h 24.0521 24.05209 l -0.25629,0.92551 c -0.48039,1.73472 -0.93677,3.64442 -0.98131,4.10618 -0.0441,0.457 -0.0423,0.46249 0.21692,0.66018 0.44216,0.33725 1.92004,0.9928 3.34705,1.48466 2.18703,0.75382 3.86582,1.57067 5.69719,2.77208 4.89456,3.21091 9.59688,8.37362 12.92467,14.19007 1.57135,2.74646 2.9137,5.85727 3.5143,8.14418 0.75461,2.87329 1.30157,7.75923 1.43953,12.8591 0.0509,1.88223 -0.0645,6.68908 -0.19138,7.97068 -0.27942,2.82231 -0.92476,4.13358 -2.91615,5.92533 -0.41898,0.37698 -1.25939,1.13589 -1.86758,1.68647 l -1.10579,1.00106 h -33.96267 -33.96268 z"
       id="path520" />
    <path
       style="fill:#ffffff;stroke-width:0.151103"
       d="m 312.48058,163.94714 c -7.46599,-1.50249 -13.9509,-10.32393 -13.94103,-18.96401 0.003,-2.67045 0.56801,-4.55124 1.71672,-5.71503 0.82153,-0.83233 1.28266,-1.00767 2.62929,-0.9998 1.07317,0.006 1.33598,0.0686 2.34209,0.55569 1.24292,0.60171 1.39507,0.71161 1.9991,1.4441 0.75797,0.91915 1.02188,2.19149 1.18175,5.69721 0.15658,3.4337 0.37003,4.76503 0.97716,6.0947 0.91939,2.01354 2.49477,2.9112 5.12194,2.91853 1.57188,0.004 2.37715,-0.20554 3.37034,-0.87857 1.43585,-0.97301 2.23469,-2.55568 3.21223,-6.36417 0.65623,-2.55663 1.01563,-3.3381 1.83985,-4.00049 0.94274,-0.75764 2.69734,-0.7915 5.49191,-0.10598 1.65419,0.40578 2.56076,0.84552 3.28915,1.59543 0.87026,0.89598 0.89705,1.59216 0.14769,3.83816 -1.25748,3.76891 -4.89954,9.11856 -7.89437,11.59565 -3.20625,2.65196 -7.92811,4.00414 -11.48382,3.28858 z"
       id="path522" />
    <path
       style="fill:#ffffff;stroke-width:0.151103"
       d="m 326.83535,195.97501 c -6.94365,-0.85467 -13.16854,-2.55973 -15.26138,-4.18025 -0.49502,-0.38331 -1.50738,-1.65514 -1.50943,-1.89632 -0.002,-0.27265 0.38724,-0.23629 2.02344,0.18883 1.99113,0.51734 7.02475,1.41296 13.14783,2.33938 6.77173,1.02455 9.56638,1.60809 11.10299,2.31835 l 0.66394,0.30689 -0.39976,0.34386 c -0.21986,0.18912 -0.65463,0.42453 -0.96614,0.52313 -0.87263,0.27621 -6.71101,0.31345 -8.80149,0.0561 z"
       id="path524" />
    <path
       style="fill:#ffffff;stroke-width:0.151103"
       d="m 276.58895,176.50335 c -1.06164,-0.46252 -2.62429,-2.75185 -4.05237,-5.93687 -1.41473,-3.15521 -2.58217,-6.81432 -2.48731,-7.79592 l 0.047,-0.48616 1.58291,0.0334 c 2.58371,0.0545 9.82772,1.12561 14.16686,2.0947 3.13724,0.70067 3.33195,0.83966 2.77826,1.98328 -0.68836,1.42176 -1.772,2.72908 -4.61432,5.56679 -4.16067,4.15393 -5.8859,5.20957 -7.42101,4.54078 z"
       id="path526" />
    <path
       style="fill:#ffffff;stroke-width:0.151103"
       d="m 235.20431,150.11515 c -4.44353,-0.70094 -8.51435,-3.2561 -11.49064,-7.21243 -2.00746,-2.66848 -3.40292,-6.01769 -4.11289,-9.87124 -0.19613,-1.06454 -0.26287,-2.25474 -0.26609,-4.74521 -0.007,-5.09491 0.0254,-5.13874 3.74284,-5.13509 2.09254,0.002 2.59679,0.0503 3.51168,0.33607 2.4424,0.76285 2.98561,2.08124 3.16026,7.66998 0.0545,1.74523 0.16583,3.61513 0.24732,4.15532 0.28194,1.8692 1.1037,3.14583 2.74038,4.25727 1.80634,1.22667 3.44336,1.7822 5.26008,1.78505 1.42363,0.002 2.55377,-0.31537 3.57013,-1.00332 1.4877,-1.00699 1.91303,-1.8277 2.80788,-5.41799 1.174,-4.71028 2.06671,-6.4788 3.66513,-7.26083 0.77984,-0.38155 0.9323,-0.40348 2.30376,-0.33147 2.68398,0.14092 4.4823,1.03219 5.25042,2.60219 0.3862,0.78936 0.40866,0.94067 0.33228,2.239 -0.0902,1.53277 -0.44022,2.70727 -1.44753,4.85681 -1.88918,4.0314 -5.63471,8.77156 -8.2493,10.43991 -1.46847,0.93701 -3.60298,1.87603 -5.17915,2.27844 -1.66704,0.42559 -4.368,0.59077 -5.84656,0.35754 z"
       id="path528" />
    <path
       style="fill:#ffffff;stroke-width:0.151103"
       d="m 211.24171,173.58442 c -4.85524,-0.13623 -10.69217,-1.02658 -14.35477,-2.18964 -3.75996,-1.19398 -8.31065,-4.01689 -8.31065,-5.15531 0,-0.50578 0.77379,-0.46147 4.3756,0.25053 4.07979,0.80648 5.80995,1.09798 14.05894,2.36865 10.06148,1.54986 12.49308,2.06335 12.83995,2.7115 0.22674,0.42366 -0.43432,1.13725 -1.32282,1.42793 -1.36719,0.4473 -4.17854,0.67354 -7.28625,0.58634 z"
       id="path530" />
  </g>
</svg>
