<?xml version="1.0" encoding="UTF-8" standalone="no"?>
<!-- Created with Inkscape (http://www.inkscape.org/) -->

<svg
   version="1.1"
   id="svg55"
   width="614.40002"
   height="345.60001"
   viewBox="0 0 614.40002 345.60001"
   xmlns="http://www.w3.org/2000/svg"
   xmlns:svg="http://www.w3.org/2000/svg">
  <defs
     id="defs59" />
  <g
     id="g61">
    <g
       id="g541"
       transform="translate(-1.297352,383.7588)">
      <path
         style="fill:#fefefe;stroke-width:0.32"
         d="m 1.5304412,-46.95484 0.152637,-9.680001 0.4821793,-51.506029 0.4821792,-51.50602 0.5819269,-1.31555 0.581927,-1.31554 17.8577634,-25.89843 17.857763,-25.89844 0.24927,-1.76 0.249271,-1.76 0.513366,-8.48 0.513367,-8.48 6.280102,-33.12 6.280103,-33.12 0.183337,-0.20977 0.183341,-0.20978 21.280001,26.84962 21.280001,26.84961 1.03208,1.6e-4 1.03208,1.6e-4 -0.314368,0.82686 -0.314372,0.82685 0.230573,0.37315 0.23057,0.37314 4.336011,5.44 4.33602,5.44 2.32788,2.93973 2.32788,2.93973 -3.37094,34.50027 -3.37094,34.50028 15.75876,47.28342 15.75877,47.283427 0.38577,-0.147923 0.38578,-0.147923 29.73505,-20.095502 29.73506,-20.095499 23.48179,-12.14949 23.48179,-12.14949 5.24876,-16.65051 5.24876,-16.65051 11.10662,-21.28 11.10662,-21.28 11.99575,-22.24001 11.99575,-22.24 7.73716,-12 7.73716,-12 -0.16768,-1.12 -0.16767,-1.12 -1.61933,-14.72 -1.61933,-14.72 -2.55278,-15.32099 -2.55277,-15.32099 -2.71777,-15.36571 -2.71776,-15.36571 0.131,-0.131 0.131,-0.131 18.83564,9.87892 18.83563,9.87891 23.36,13.85146 23.36,13.85147 0.10794,0.10193 0.10794,0.10193 -2.58794,9.48658 -2.58794,9.48657 v 0.53882 0.53881 l 4.29856,18.89818 4.29853,18.89817 7.04471,19.38325 7.04467,19.38325 4.3359,19.07658 4.33591,19.07658 v 0.61929 0.6193 l -10.43741,19.12701 -10.43741,19.12701 0.92378,0.81569 0.92374,0.8157 23.47491,20.96 23.47488,20.96 0.27767,0.1063 0.27766,0.1063 26.16308,-8.71884 26.16307,-8.71884 8.08345,-26.10746 8.08343,-26.10746 5.11738,-19.66155 5.11734,-19.66154 1.7321,-2.25846 1.73212,-2.25846 16.58512,-21.34967 16.58509,-21.34968 7.4833,-14.65032 7.48329,-14.65033 0.073,-0.0896 0.073,-0.0896 11.12995,-3.03744 11.12996,-3.03745 0.11817,0.11819 0.11821,0.1182 -0.83962,20.76889 -0.83961,20.76888 -4.43168,23.17328 -4.43168,23.17328 6.34819,16.34672 6.34816,16.34673 6.75869,18.59784 6.75865,18.59784 v 12.26285 12.26283 l 2.72,9.64785 2.72,9.647841 v 27.091473 27.091476 H 308.39667 1.3760762 l 0.152637,-9.68 z"
         id="path573" />
      <path
         style="fill:#fafafa;stroke-width:0.32"
         d="m 1.5304412,-46.95484 0.152637,-9.680001 0.4821793,-51.506029 0.4821792,-51.50602 0.5760279,-1.29398 0.5760279,-1.29397 17.8695445,-25.92 17.869543,-25.92001 0.246512,-1.6 0.246509,-1.6 0.496281,-8.32 0.496285,-8.32 1.341581,-7.42903 1.341578,-7.42903 0.975824,0.73807 0.975824,0.73806 1.694941,1.21172 1.694944,1.21172 5.583555,-3.72075 5.583556,-3.72076 h 0.283756 0.283754 l 5.851975,8.95911 5.851977,8.95911 0.128036,-0.12804 0.128038,-0.12804 0.459402,-1.75925 0.459404,-1.75924 -1.12167,-2.93927 -1.121667,-2.93928 v -0.43461 -0.43461 l -1.76,-1.0527 -1.76,-1.0527 v -0.19927 -0.19926 l 1.6,-5.46911 1.6,-5.46911 v -0.44803 -0.44805 l -4.03145,-8.60882 -4.031447,-8.60883 -1.236816,-7.95523 -1.236816,-7.95522 -1.283305,-1.64478 -1.283309,-1.64477 -1.501677,-1.92 -1.50168,-1.92 0.653802,0.64 0.653804,0.64 9.399447,11.8691 9.399447,11.8691 11.04,13.95453 11.040001,13.95453 0.362678,0.0164 0.362678,0.0164 0.152279,0.58231 0.152278,0.58231 6.776651,8.52322 6.77665,8.52322 -3.37037,34.49447 -3.37037,34.49445 15.75876,47.28342 15.75877,47.283427 0.38577,-0.147923 0.38578,-0.147923 29.73505,-20.095502 29.73506,-20.095499 23.48179,-12.14949 23.48179,-12.14949 5.24876,-16.65051 5.24876,-16.65051 11.10662,-21.28 11.10662,-21.28 11.99412,-22.24001 11.99411,-22.24 7.01599,-10.88 7.01599,-10.88 0.69781,-1.13498 0.69781,-1.13498 -1.88173,-16.81289 -1.88174,-16.8129 1.25232,-4.13212 1.25232,-4.13213 0.17721,-0.46189 0.17721,-0.46189 10.02583,18.63405 10.02583,18.63406 0.32028,-2.17216 0.32026,-2.17217 1.55331,-10.96 1.55331,-10.96 h 0.19306 0.19309 l 8.93379,24.94142 8.93382,24.94143 0.19351,-0.22143 0.19353,-0.22142 2.28647,-8.98571 2.28649,-8.9857 v -1.7953 -1.79529 l 4.32,-15.82512 4.32,-15.82513 v -7.87387 -7.87388 l 0.56,9.6e-4 0.56,9.6e-4 2.83124,0.49524 2.83123,0.49523 0.30349,-0.10116 0.30348,-0.10116 -2.09472,-1.22536 -2.09472,-1.22535 v -0.14863 -0.14862 l 0.24,0.13508 0.24,0.13508 6.08,3.59828 6.08,3.59829 0.10794,0.10013 0.10794,0.10013 -2.58794,9.48657 -2.58794,9.48658 v 0.53881 0.53882 l 4.29856,18.89817 4.29853,18.89818 7.04471,19.38324 7.04467,19.38325 4.3359,19.07658 4.33591,19.07658 v 0.6193 0.6193 l -10.43741,19.127 -10.43741,19.12701 0.92378,0.8157 0.92374,0.81569 23.47491,20.96 23.47488,20.96 0.27767,0.1063 0.27766,0.10631 26.16308,-8.71884 26.16307,-8.71885 8.08345,-26.10746 8.08343,-26.10746 5.1144,-19.65021 5.1144,-19.65021 1.36016,-1.76451 1.36019,-1.76451 16.96,-21.84031 16.96,-21.84031 7.48599,-14.66497 7.48601,-14.66497 0.0703,-0.0896 0.0703,-0.0896 11.12995,-3.03744 11.12996,-3.03744 0.11817,0.11819 0.11821,0.11819 -0.83962,20.76889 -0.83961,20.76889 -4.43168,23.17327 -4.43168,23.17328 6.34819,16.34672 6.34816,16.34673 6.75869,18.59785 6.75865,18.59784 v 12.26284 12.26284 l 2.72,9.64784 2.72,9.647846 v 27.091473 27.091476 H 308.39667 1.3760762 l 0.152637,-9.68 z M 43.949499,-249.75485 v -0.8 l 0.161404,0.4 0.161405,0.4 -0.161405,0.4 -0.161404,0.4 z m 0.294739,-1.78666 0.02525,-0.61334 0.16807,0.42 0.168071,0.42 -0.193332,0.19334 -0.193334,0.19333 0.02525,-0.61333 z m 0.32,-1.6 0.02525,-0.61334 0.16807,0.42 0.168071,0.42 -0.193332,0.19334 -0.193334,0.19333 0.02525,-0.61333 z m 0.345261,-1.73334 v -0.8 l 0.161404,0.4 0.161405,0.4 -0.161405,0.4 -0.161404,0.4 z m 0.32,-1.6 v -0.8 l 0.161404,0.4 0.161405,0.4 -0.161405,0.4 -0.161404,0.4 z m 0.294739,-1.78666 0.02525,-0.61334 0.16807,0.42 0.168071,0.42 -0.193332,0.19334 -0.193334,0.19333 0.02525,-0.61333 z m 0.32,-1.6 0.02525,-0.61334 0.16807,0.42 0.168071,0.42 -0.193332,0.19334 -0.193334,0.19333 0.02525,-0.61333 z m 0.345261,-1.73334 v -0.8 l 0.161404,0.4 0.161405,0.4 -0.161405,0.4 -0.161404,0.4 z m 0.32,-1.6 v -0.8 l 0.161404,0.4 0.161405,0.4 -0.161405,0.4 -0.161404,0.4 z m 0.294739,-1.78666 0.02525,-0.61334 0.16807,0.42 0.168071,0.42 -0.193332,0.19334 -0.193334,0.19333 0.02525,-0.61333 z m 0.32,-1.6 0.02525,-0.61334 0.16807,0.42 0.168071,0.42 -0.193331,0.19334 -0.193335,0.19333 0.02525,-0.61333 z m 0.345261,-1.73334 v -0.8 l 0.161405,0.4 0.161404,0.4 -0.161404,0.4 -0.161405,0.4 z m 0.32,-1.6 v -0.8 l 0.161405,0.4 0.161404,0.4 -0.161404,0.4 -0.161405,0.4 z m 0.32,-1.6 v -0.8 l 0.161405,0.4 0.161404,0.4 -0.161404,0.4 -0.161405,0.4 z m 0.294739,-1.78666 0.02525,-0.61334 0.16807,0.42 0.168071,0.42 -0.193331,0.19334 -0.193335,0.19333 0.02525,-0.61333 z m 0.32,-1.6 0.02525,-0.61334 0.16807,0.42 0.168071,0.42 -0.193331,0.19334 -0.193335,0.19333 0.02525,-0.61333 z m 0.345261,-1.73334 v -0.8 l 0.161405,0.4 0.161404,0.4 -0.161404,0.4 -0.161405,0.4 z m 0.32,-1.6 v -0.8 l 0.161405,0.4 0.161404,0.4 -0.161404,0.4 -0.161405,0.4 z m 0.294739,-1.78666 0.02525,-0.61334 0.16807,0.42 0.168071,0.42 -0.193331,0.19334 -0.193335,0.19333 0.02525,-0.61333 z m 0.32,-1.6 0.02525,-0.61334 0.16807,0.42 0.168071,0.42 -0.193331,0.19334 -0.193335,0.19333 0.02525,-0.61333 z m 0.345261,-1.73334 v -0.8 l 0.161405,0.4 0.161404,0.4 -0.161404,0.4 -0.161405,0.4 z m 0.32,-1.6 v -0.8 l 0.161405,0.4 0.161404,0.4 -0.161404,0.4 -0.161405,0.4 z m 0.294739,-1.78666 0.02525,-0.61334 0.16807,0.42 0.168071,0.42 -0.193331,0.19334 -0.193335,0.19333 0.02525,-0.61333 z m 0.32,-1.6 0.02525,-0.61334 0.16807,0.42 0.168071,0.42 -0.193331,0.19334 -0.193335,0.19333 0.02525,-0.61333 z m 0.345261,-1.73334 v -0.8 l 0.161405,0.4 0.161404,0.4 -0.161404,0.4 -0.161405,0.4 z m 0.32,-1.6 v -0.8 l 0.161405,0.4 0.161404,0.4 -0.161404,0.4 -0.161405,0.4 z m 0.32,-1.6 v -0.8 l 0.161405,0.4 0.161404,0.4 -0.161404,0.4 -0.161405,0.4 z m 0.294739,-1.78666 0.02525,-0.61334 0.16807,0.42 0.168071,0.42 -0.193331,0.19334 -0.193335,0.19333 0.02525,-0.61333 z m 0.32,-1.6 0.02525,-0.61334 0.16807,0.42 0.168071,0.42 -0.193331,0.19334 -0.193335,0.19333 0.02525,-0.61333 z m 0.345261,-1.73334 v -0.8 l 0.161405,0.4 0.161405,0.4 -0.161405,0.4 -0.161405,0.4 z m 0.313053,-1.50111 -0.04358,-0.70112 0.277232,-0.17134 0.277235,-0.17134 0.602765,0.71246 0.602768,0.71245 -0.694294,-0.58633 -0.694291,-0.58633 -0.142128,0.74633 -0.142132,0.74633 z m 258.246958,-9.05889 v -0.8 l 0.1614,0.4 0.16141,0.4 -0.16141,0.4 -0.1614,0.4 z m -0.32,-1.92 v -0.8 l 0.1614,0.4 0.16141,0.4 -0.16141,0.4 -0.1614,0.4 z m -0.32,-1.92 v -0.8 l 0.1614,0.4 0.16141,0.4 -0.16141,0.4 -0.1614,0.4 z m -0.32,-1.92 v -0.8 l 0.1614,0.4 0.16141,0.4 -0.16141,0.4 -0.1614,0.4 z m -0.32,-1.92 v -0.8 l 0.1614,0.4 0.16141,0.4 -0.16141,0.4 -0.1614,0.4 z m -0.32,-1.92 v -0.8 l 0.1614,0.4 0.16141,0.4 -0.16141,0.4 -0.1614,0.4 z m -0.32,-1.92 v -0.8 l 0.1614,0.4 0.16141,0.4 -0.16141,0.4 -0.1614,0.4 z m -0.32,-1.92 v -0.8 l 0.1614,0.4 0.16141,0.4 -0.16141,0.4 -0.1614,0.4 z m -0.32,-1.92 v -0.8 l 0.1614,0.4 0.16141,0.4 -0.16141,0.4 -0.1614,0.4 z m -0.32,-1.92 v -0.8 l 0.1614,0.4 0.16141,0.4 -0.16141,0.4 -0.1614,0.4 z m 63.77063,-1.45765 -0.62116,-0.49765 0.72,0.34891 0.72,0.34891 v 0.14874 0.14874 h -0.0988 -0.0988 z m -64.09063,-0.46235 v -0.8 l 0.1614,0.4 0.16141,0.4 -0.16141,0.4 -0.1614,0.4 z m 60.03123,-1.86761 -3.11824,-1.86221 -0.24176,-0.26639 -0.24176,-0.2664 0.32,0.16466 0.32,0.16465 3.12,1.84608 3.12,1.84607 v 0.12058 0.12057 l -0.08,-0.003 -0.08,-0.003 -3.11824,-1.86221 z m -60.35123,-0.0524 v -0.8 l 0.1614,0.4 0.16141,0.4 -0.16141,0.4 -0.1614,0.4 z m -0.32,-1.92 v -0.8 l 0.1614,0.4 0.16141,0.4 -0.16141,0.4 -0.1614,0.4 z m 56.09063,-0.81765 -0.62116,-0.49765 0.72,0.34891 0.72,0.34891 v 0.14874 0.14874 h -0.0988 -0.0988 z m -56.41063,-1.10235 v -0.8 l 0.1614,0.4 0.16141,0.4 -0.16141,0.4 -0.1614,0.4 z m 52.35123,-1.22761 -3.11824,-1.86221 -0.24176,-0.26639 -0.24176,-0.2664 0.32,0.16466 0.32,0.16465 3.12,1.84608 3.12,1.84607 v 0.12058 0.12057 l -0.08,-0.003 -0.08,-0.003 -3.11824,-1.86221 z m -52.67123,-0.69239 v -0.8 l 0.1614,0.4 0.16141,0.4 -0.16141,0.4 -0.1614,0.4 z m -0.32,-1.92 v -0.8 l 0.1614,0.4 0.16141,0.4 -0.16141,0.4 -0.1614,0.4 z m 48.41063,-0.17765 -0.62116,-0.49765 0.72,0.34891 0.72,0.34891 v 0.14874 0.14874 h -0.0988 -0.0988 z m -4.0594,-2.32996 -3.11824,-1.86221 -0.24176,-0.26639 -0.24176,-0.2664 0.32,0.16466 0.32,0.16465 3.12,1.84608 3.12,1.84607 v 0.12058 0.12057 l -0.08,-0.003 -0.08,-0.003 -3.11824,-1.86221 z m -44.67123,0.90761 v -0.8 l 0.1614,0.4 0.16141,0.4 -0.16141,0.4 -0.1614,0.4 z m -0.32,-1.92 v -0.8 l 0.1614,0.4 0.16141,0.4 -0.16141,0.4 -0.1614,0.4 z m -0.32,-1.92 v -0.8 l 0.1614,0.4 0.16141,0.4 -0.16141,0.4 -0.1614,0.4 z m 40.73063,0.14235 -0.62116,-0.49765 0.72,0.34891 0.72,0.34891 v 0.14874 0.14874 h -0.0988 -0.0988 z m -4.0594,-2.32996 -3.11824,-1.86221 -0.24176,-0.26639 -0.24176,-0.2664 0.32,0.16466 0.32,0.16465 3.12,1.84608 3.12,1.84607 v 0.12058 0.12057 l -0.08,-0.003 -0.08,-0.003 -3.11824,-1.86221 z m -36.99123,0.58761 v -0.8 l 0.1614,0.4 0.16141,0.4 -0.16141,0.4 -0.1614,0.4 z m -0.32,-1.92 v -0.8 l 0.1614,0.4 0.16141,0.4 -0.16141,0.4 -0.1614,0.4 z m 30.58947,-2.41965 -2.8,-1.42725 v -0.15976 -0.15976 l 2.88,1.44642 2.88,1.44642 v 0.15679 0.15679 l -0.08,-0.0162 -0.08,-0.0162 -2.8,-1.42726 z m -30.90947,0.49965 v -0.8 l 0.1614,0.4 0.16141,0.4 -0.16141,0.4 -0.1614,0.4 z m -0.32,-1.6 v -0.8 l 0.1614,0.4 0.16141,0.4 -0.16141,0.4 -0.1614,0.4 z m 24.50947,-2.41965 -2.8,-1.42725 v -0.15976 -0.15976 l 2.88,1.44642 2.88,1.44642 v 0.15679 0.15679 l -0.08,-0.0162 -0.08,-0.0162 -2.8,-1.42726 z m -24.82947,0.49965 v -0.8 l 0.1614,0.4 0.16141,0.4 -0.16141,0.4 -0.1614,0.4 z m -0.32,-1.92 v -0.8 l 0.1614,0.4 0.16141,0.4 -0.16141,0.4 -0.1614,0.4 z m 18.42947,-2.09965 -2.8,-1.42725 v -0.15976 -0.15976 l 2.88,1.44642 2.88,1.44642 v 0.15679 0.15679 l -0.08,-0.0162 -0.08,-0.0162 -2.8,-1.42726 z m -18.74947,0.49965 v -0.8 l 0.1614,0.4 0.16141,0.4 -0.16141,0.4 -0.1614,0.4 z m -0.32,-1.92 v -0.8 l 0.1614,0.4 0.16141,0.4 -0.16141,0.4 -0.1614,0.4 z m 12.34947,-2.09965 -2.8,-1.42725 v -0.15976 -0.15976 l 2.88,1.44642 2.88,1.44642 v 0.15679 0.15679 l -0.08,-0.0162 -0.08,-0.0162 z m -12.66947,0.17965 v -0.8 l 0.1614,0.4 0.16141,0.4 -0.16141,0.4 -0.1614,0.4 z m -0.32,-1.6 v -0.8 l 0.1614,0.4 0.16141,0.4 -0.16141,0.4 -0.1614,0.4 z m 6.26947,-2.09965 -2.8,-1.42725 v -0.15976 -0.15976 l 2.88,1.44642 2.88,1.44642 v 0.15679 0.15679 l -0.08,-0.0162 -0.08,-0.0162 z m -6.58947,0.17965 v -0.8 l 0.1614,0.4 0.16141,0.4 -0.16141,0.4 -0.1614,0.4 z m -0.32,-1.92 v -0.8 l 0.1614,0.4 0.16141,0.4 -0.16141,0.4 -0.1614,0.4 z m 1.54947,-1.10429 -1.44,-0.75538 -0.2175,0.52984 -0.21752,0.52983 -0.0225,-0.72 -0.0225,-0.72 h 0.17064 0.17064 l 1.58936,0.80539 1.58936,0.80539 v 0.15461 0.15461 l -0.08,-0.0145 -0.08,-0.0145 -1.44,-0.75537 z"
         id="path571" />
      <path
         style="fill:#e7e7e7;stroke-width:0.32"
         d="m 1.5323455,-46.63484 0.1490881,-9.360001 0.4835712,-51.756349 0.4835711,-51.75634 0.497076,-1.18968 0.497076,-1.18967 18.0821641,-26.24597 18.082165,-26.24598 0.734157,-10.56801 0.734157,-10.56801 1.202364,-6.4 1.202362,-6.4 0.09132,-0.11521 0.09132,-0.11522 2.458218,1.79522 2.458217,1.79521 h 0.281402 0.281405 l 5.60007,-3.73176 5.600074,-3.73175 0.123661,0.13175 0.123661,0.13176 4.090957,6.24 4.090957,6.24 1.82264,2.8071 1.822637,2.8071 0.513372,-2.0071 0.513376,-2.0071 -1.192204,-3.48544 -1.192205,-3.48544 -1.704458,-1.10004 -1.704461,-1.10004 0.164554,-0.42881 0.16455,-0.42881 1.48329,-5.06571 1.483286,-5.06571 0.03303,-0.48 0.03303,-0.48 -4.086688,-8.8 -4.086692,-8.8 -1.086326,-7.2 -1.08633,-7.2 -0.317078,-0.96 -0.317075,-0.96 0.553686,0.69933 0.553686,0.69933 6.556855,8.26067 6.556858,8.26067 6.100918,7.68 6.100919,7.68 11.834999,14.88 11.835002,14.88 0.70648,0.96 0.70648,0.96 -3.36114,34.39315 -3.36113,34.39314 15.76188,47.29028 15.76189,47.290287 0.4439,-0.170227 0.4439,-0.17023 29.4761,-19.936628 29.4761,-19.936632 23.6909,-12.28118 23.6909,-12.28118 5.25218,-16.65538 5.25218,-16.65539 10.95478,-20.99134 10.95477,-20.99134 11.9656,-22.20866 11.96559,-22.20867 7.90361,-12.28095 7.9036,-12.28095 -1.77958,-16.03905 -1.77959,-16.03905 -0.16133,-0.53572 -0.16133,-0.53572 1.32686,-4.42428 1.32684,-4.42428 0.22077,-0.23775 0.22077,-0.23776 9.90624,18.39779 9.90621,18.3978 0.21616,-0.72004 0.21613,-0.72004 1.64253,-11.84 1.64256,-11.84 0.22131,-0.54899 0.22134,-0.54899 8.96,25.08417 8.96,25.08418 0.19351,-0.21519 0.19353,-0.21518 2.28647,-8.98571 2.28649,-8.9857 v -1.7953 -1.79529 l 4.32,-15.82512 4.32,-15.82513 v -8.03387 -8.03388 l 0.4,9.6e-4 0.4,9.6e-4 2.72,0.47088 2.72,0.47088 1.12,0.13517 1.12,0.13516 3.68,2.15934 3.68,2.15934 0.0995,0.0797 0.0995,0.0798 -2.57949,9.43638 -2.57949,9.43639 v 0.64349 0.6435 l 4.31796,18.9508 4.31798,18.9508 7.02192,19.30498 7.02195,19.30499 4.3401,19.08786 4.3401,19.08786 v 0.55806 0.55805 l -10.43578,19.12923 -10.43574,19.12923 0.75574,0.72667 0.75578,0.72667 22.72,20.23943 22.72,20.23943 1.05155,0.99091 1.05155,0.9909 26.3225,-8.76981 26.32249,-8.76982 7.89815,-25.46415 7.89817,-25.46416 5.29057,-20.27032 5.29056,-20.27033 18.43254,-23.72967 18.43258,-23.72968 3.16617,-6.32 3.16621,-6.32 h 0.16499 0.16496 l -0.64649,1.26725 -0.6465,1.26725 v 5.45275 5.45275 h 0.16266 0.16268 l 7.35466,-3.68 7.35466,-3.68 0.24269,0.003 0.24265,0.003 3.04,5.911 3.04,5.911 0.20807,-0.0738 0.20806,-0.0738 1.31194,-1.59413 1.31193,-1.59413 -0.009,-0.48587 -0.009,-0.48587 -3.96317,-15.80396 -3.96313,-15.80396 -0.33213,-0.20525 -0.3321,-0.20525 7.88602,-2.14246 7.88602,-2.14246 0.0982,0.0983 0.0983,0.0983 -0.93607,21.57342 -0.93603,21.57341 -4.3343,22.36402 -4.33431,22.36402 6.35178,16.35599 6.35174,16.35598 6.75869,18.59784 6.75866,18.59784 v 12.26551 12.26552 l 2.72,9.67945 2.72,9.679458 v 27.057191 27.057191 H 308.40138 1.3835134 l 0.1490881,-9.36 z m 566.6866445,-233.52001 2.72355,-5.44 h 0.16 0.16 l -2.72355,5.44 -2.72355,5.44 h -0.16 -0.16 z m -510.280835,-15.6 -0.439181,-0.56 0.56,0.43918 0.56,0.43919 v 0.12081 0.12082 h -0.120819 -0.120816 z m -1.28,-1.6 -0.439181,-0.56 0.56,0.43918 0.56,0.43919 v 0.12081 0.12082 h -0.120819 -0.120816 z m -1.28,-1.6 -0.439181,-0.56 0.56,0.43918 0.56,0.43919 v 0.12081 0.12082 h -0.120819 -0.120816 z m 250.946095,-42.18666 0.0252,-0.61334 0.16807,0.42 0.16808,0.42 -0.19334,0.19334 -0.19333,0.19333 0.0253,-0.61333 z m -0.96,-5.44 0.0252,-0.61334 0.16807,0.42 0.16808,0.42 -0.19334,0.19334 -0.19333,0.19333 0.0252,-0.61333 z m -0.96,-5.44001 0.0252,-0.61333 0.16807,0.42 0.16808,0.42 -0.19334,0.19333 -0.19333,0.19334 0.0253,-0.61334 z m -0.96,-5.44 0.0252,-0.61333 0.16807,0.42 0.16808,0.42 -0.19334,0.19333 -0.19333,0.19334 0.0252,-0.61334 z m -0.96,-5.44 0.0252,-0.61333 0.16807,0.42 0.16808,0.42 -0.19334,0.19333 -0.19333,0.19334 0.0252,-0.61334 z m -0.66527,-3.81333 v -0.48 h 0.30996 0.30996 l -0.1842,0.48 -0.18419,0.48 h -0.12576 -0.12577 z"
         id="path569" />
      <path
         style="fill:#d8d8d8;stroke-width:0.32"
         d="m 1.5368012,-45.99484 0.1411569,-8.720001 0.4878452,-52.402419 0.4878452,-52.40242 0.4628723,-1.1078 0.4628722,-1.10781 18.139528,-26.32681 18.139528,-26.3268 0.725405,-10.56297 0.725408,-10.56298 1.14479,-6.08 1.144787,-6.08 0.142928,-0.40756 0.142928,-0.40757 2.390106,1.76757 2.390109,1.76756 h 0.338534 0.338535 l 5.619587,-3.74476 5.619588,-3.74476 0.278307,0.45031 0.278304,0.45031 5.698192,8.71603 5.698189,8.71604 0.201226,-0.38158 0.201225,-0.38159 0.389088,-1.66324 0.389088,-1.66326 -1.147901,-3.06426 -1.147897,-3.06426 v -0.39772 -0.39773 l -1.714106,-1.02525 -1.714102,-1.02525 1.720752,-5.87339 1.720755,-5.8734 -4.152957,-8.93612 -4.152954,-8.93612 -1.155456,-7.47157 -1.155456,-7.47157 0.135296,-0.1353 0.135296,-0.13529 7.805322,9.84687 7.805325,9.84686 17.542477,22.06321 17.542483,22.0632 -0.18644,1.4568 -0.18643,1.45679 -3.20154,32.93889 -3.20154,32.93888 15.76583,47.30112 15.76582,47.301119 h 0.21434 0.21434 l 29.70647,-20.093876 29.70648,-20.093873 23.69637,-12.28206 23.69638,-12.28206 5.25604,-16.66407 5.25605,-16.66406 10.68366,-20.48 10.68367,-20.48 12.23959,-22.72001 12.23958,-22.72 7.89275,-12.26876 7.89274,-12.26877 -1.77767,-16.05124 -1.77766,-16.05123 -0.16143,-0.45402 -0.16144,-0.45402 1.32908,-4.50598 1.32908,-4.50598 0.20161,-0.2225 0.2016,-0.22251 9.90989,18.41263 9.90989,18.41264 0.23142,-0.59013 0.23146,-0.59013 1.63734,-11.84 1.63735,-11.84 0.22902,-0.58472 0.22906,-0.58473 8.95229,24.98419 8.95228,24.98419 0.16,-0.001 0.16,-0.001 2.32864,-9.19825 2.32864,-9.19826 -0.009,-1.661 -0.009,-1.661 4.32,-15.82513 4.32,-15.82512 v -8.20838 -8.20837 l 1.04,0.18766 1.04,0.18766 3.40704,0.57302 3.40704,0.57303 3.39661,2.01028 3.39661,2.01029 0.11741,0.20353 0.11744,0.20353 -2.61994,9.59091 -2.6199,9.59091 0.87677,3.84909 0.87676,3.84909 3.54215,15.52 3.54214,15.52 7.03716,19.36 7.03718,19.36 4.32278,19.01161 4.32276,19.01162 v 0.50231 0.50232 l -10.44356,19.15638 -10.44352,19.15638 0.92352,0.88931 0.92356,0.88931 21.12,18.82222 21.12,18.82221 2.50608,2.2473 2.50604,2.2473 26.31495,-8.7673 26.31494,-8.7673 7.91303,-25.51246 7.91299,-25.51247 5.22269,-20.01947 5.22269,-20.01946 0.47952,-0.72991 0.47949,-0.7299 17.96636,-23.1288 17.96634,-23.12879 2.70048,-5.35121 2.70051,-5.3512 0.017,5.68 0.017,5.68 h 0.32007 0.32009 l 7.38167,-3.71158 7.38166,-3.71159 0.0888,0.11159 0.0888,0.11158 2.99056,5.84628 2.99056,5.84629 0.25728,-0.0863 0.25724,-0.0863 1.39696,-1.70332 1.39696,-1.70332 -4.09497,-16.37038 -4.09501,-16.37038 0.11005,-0.11003 0.11001,-0.11004 7.45648,-2.04274 7.45645,-2.04274 0.075,0.0751 0.0751,0.0751 -0.83024,20.79142 -0.8302,20.79142 -4.42992,23.17344 -4.42996,23.17344 6.10906,15.70656 6.10906,15.70656 7.00918,19.28518 7.00918,19.28517 v 12.26601 12.26601 l 2.72,9.66029 2.72,9.660288 v 27.028529 27.028529 H 308.40735 1.3956762 l 0.141157,-8.72 z"
         id="path567" />
      <path
         style="fill:#c6c6c6;stroke-width:0.32"
         d="m 1.5477644,-45.19484 0.1251505,-7.92 0.4946796,-53.26027 0.4946795,-53.26027 0.5797671,-1.19998 0.5797672,-1.19998 18.0324457,-26.17925 18.032448,-26.17925 0.70336,-10.40051 0.703363,-10.4005 1.205565,-6.48 1.205568,-6.48 h 0.30872 0.308723 l 2.346157,1.76586 2.34616,1.76587 5.766141,-3.85272 5.766144,-3.85271 5.585127,8.48722 5.585123,8.48723 0.369706,0.69079 0.369702,0.6908 0.245831,-0.45117 0.245827,-0.45117 0.379206,-1.76 0.379207,-1.76 -1.130122,-3.01249 -1.130122,-3.01249 0.155623,-0.2518 0.155622,-0.2518 -1.769181,-1.13174 -1.769177,-1.13173 -9.6e-4,-0.24397 -9.6e-4,-0.24398 1.636752,-5.62605 1.636752,-5.62605 -4.161092,-8.96445 -4.161091,-8.96444 -1.138016,-7.47957 -1.138016,-7.47958 0.08925,-0.0892 0.08926,-0.0893 5.09401,6.44918 5.094006,6.44918 2.554019,3.23015 2.55402,3.23014 14.534973,18.24 14.534968,18.24 3.17184,3.98687 3.17184,3.98686 -0.18759,1.45314 -0.1875,1.45313 -3.20331,32.92856 -3.20331,32.92854 15.76927,47.31146 15.76926,47.311449 h 0.22855 0.22855 l 29.37227,-19.892141 29.37226,-19.892138 24.02381,-12.47668 24.02381,-12.47667 5.25619,-16.66677 5.25619,-16.66676 10.48565,-20.11013 10.48564,-20.11013 12.44076,-23.09429 12.44076,-23.0943 7.88374,-12.2533 7.88372,-12.2533 -1.77938,-16.0667 -1.77939,-16.0667 -0.15492,-0.43705 -0.15493,-0.43705 1.33709,-4.52295 1.33709,-4.52295 0.18708,-0.21676 0.18709,-0.21676 9.88749,18.39327 9.88749,18.39326 0.22346,-0.2565 0.22342,-0.25651 1.67222,-12 1.67226,-12 0.21693,-0.72028 0.21693,-0.72027 8.94739,24.96027 8.94742,24.96028 0.17251,-3.2e-4 0.17248,-3.2e-4 2.3336,-9.19965 2.3336,-9.19966 -0.0138,-1.55387 -0.0138,-1.55388 4.32,-15.82512 4.32,-15.82513 v -8.30709 -8.3071 l 0.72,0.1622 0.72,0.1622 3.68013,0.6116 3.68013,0.6116 3.4312,2.0323 3.4312,2.03229 0.009,0.43747 0.009,0.43745 -2.54749,9.32255 -2.54749,9.32253 1.41636,6.08 1.41632,6.08 3.04384,13.28 3.04381,13.28 7.01507,19.26504 7.0151,19.26504 4.37792,19.25947 4.37792,19.25946 -0.15408,0.58928 -0.15411,0.58927 -10.31616,18.9163 -10.31619,18.9163 1.08457,1.05034 1.08461,1.05034 22.56,20.0899 22.56,20.08991 0.89389,0.82286 0.89392,0.82287 26.33239,-8.77311 26.33241,-8.77311 8.03475,-25.94008 8.03476,-25.94007 4.98441,-19.2 4.98445,-19.2 0.3192,-0.74532 0.31917,-0.74532 18.17994,-23.41468 18.17993,-23.41469 2.69539,-5.25878 2.6954,-5.25879 0.0874,5.65638 0.0874,5.65638 7.64854,-3.82682 7.64852,-3.82682 0.78131,1.34923 0.78131,1.34922 2.30499,4.56 2.30499,4.56 h 0.2586 0.25859 l 1.4424,-1.75204 1.44237,-1.75205 -4.10282,-16.40165 -4.10282,-16.40165 0.0596,-0.0552 0.0597,-0.0552 7.12989,-1.95112 7.12985,-1.95113 h 0.41645 0.41645 l -0.10797,1.68 -0.10797,1.68 -0.63392,16.48 -0.63392,16.48 -0.13174,3.2 -0.13178,3.20001 -4.35561,22.54313 -4.35565,22.54312 6.22985,16.01688 6.22983,16.01687 6.89312,18.96244 6.89312,18.96244 v 12.31017 12.31016 l 2.72,9.61479 2.72,9.614787 v 27.032605 27.032609 H 308.42042 1.4222298 l 0.1251506,-7.92 z"
         id="path565" />
      <path
         style="fill:#bababa;stroke-width:0.32"
         d="m 1.5575204,-44.71484 0.1113873,-7.44 0.4991423,-53.74001 0.4991423,-53.74001 0.6594805,-1.29999 0.6594806,-1.29999 17.5464036,-25.47663 17.546404,-25.47664 0.474585,-0.92337 0.474586,-0.92337 0.662275,-10.24 0.662279,-10.24 1.184726,-6.32 1.18473,-6.32 h 0.265446 0.26545 l 2.3844,1.76335 2.3844,1.76335 5.757578,-3.84699 5.757574,-3.84699 4.360768,6.64364 4.360765,6.64364 1.604007,2.50022 1.60401,2.50022 0.251625,-0.26022 0.251629,-0.26022 0.39313,-1.92502 0.393126,-1.92502 -1.06512,-2.87498 -1.065123,-2.87498 0.0322,-0.50036 0.0322,-0.50036 -1.015619,-0.55189 -1.015619,-0.5519 -0.726045,-0.55368 -0.726045,-0.55368 1.606045,-5.53567 1.606045,-5.53567 v -0.42375 -0.42374 l -4.030256,-8.59465 -4.030257,-8.59465 -1.219577,-7.68 -1.219581,-7.68 0.04984,-0.0475 0.04983,-0.0475 4.501028,5.64749 4.50103,5.64749 6.455642,8.16 6.455645,8.16 0.91647,1.12 0.916471,1.12 12.620048,15.84 12.620048,15.84 0.84842,1.1261 0.84842,1.12609 -3.35539,34.35138 -3.35538,34.35138 15.77296,47.32253 15.77296,47.322529 h 0.24184 0.24183 l 29.68746,-20.08 29.68745,-20.079999 23.70139,-12.28451 23.70139,-12.2845 5.19454,-16.5155 5.19454,-16.51549 10.58123,-20.32 10.58122,-20.32 12.31402,-22.88001 12.31403,-22.88 7.9709,-12.41471 7.9709,-12.41472 -1.87319,-16.70528 -1.8732,-16.70529 0.40464,-1.28 0.40465,-1.28 1.00386,-3.31929 1.00387,-3.31929 10.03501,18.65114 10.03505,18.65114 0.17324,-0.77185 0.17325,-0.77185 1.60765,-11.52 1.60765,-11.52 0.23821,-0.88303 0.2382,-0.88304 8.93658,24.96304 8.93658,24.96303 h 0.19171 0.19168 l 2.32595,-9.2 2.32595,-9.2 -0.0138,-1.44 -0.0138,-1.44 4.31917,-15.84 4.31917,-15.84 v -8.24 -8.24 h 0.52445 0.52444 l 3.87556,0.65769 3.87555,0.65769 3.28365,1.93878 3.28364,1.93878 0.16925,0.27383 0.16925,0.27383 -2.5993,9.50878 -2.59926,9.50877 1.32381,5.94093 1.32381,5.94092 0.28483,0.64 0.28483,0.64 2.89498,12.83526 2.89494,12.83527 7.03447,19.33941 7.03446,19.33942 4.32746,19.02532 4.32745,19.02533 v 0.45169 0.45169 l -10.22179,18.74831 -10.22179,18.74831 -0.19568,0.51628 -0.19565,0.51628 23.61098,21.08372 23.61097,21.08372 0.92851,0.78381 0.92852,0.78382 26.31072,-8.7659 26.31075,-8.76589 8.03437,-25.93792 8.0344,-25.93792 4.82947,-18.56 4.82944,-18.56 0.30467,-1.15895 0.30468,-1.15895 18.24854,-23.48105 18.24851,-23.48106 2.79021,-5.36013 2.79018,-5.36013 0.0874,5.59772 0.0874,5.59773 7.65798,-3.83155 7.65799,-3.83154 2.0671,3.91395 2.06714,3.91395 1.05619,2.16 1.05622,2.16 0.1713,-0.0222 0.17133,-0.0222 1.52333,-1.88932 1.52329,-1.88933 -4.10857,-16.42485 -4.10858,-16.42486 7.356,-1.98625 7.356,-1.98626 0.16336,0.16336 0.16336,0.16336 -0.69792,17.99924 -0.69792,17.99923 -0.12662,3.2 -0.1266,3.2 -4.3598,22.54308 -4.35981,22.54308 6.22454,16.01692 6.22458,16.01692 6.90566,18.99949 6.9057,18.99948 v 12.27312 12.27313 l 2.72,9.61479 2.72,9.614784 v 27.032605 27.032609 H 308.4301 1.4436691 l 0.1113873,-7.44 z"
         id="path563" />
      <path
         style="fill:#a7a7a7;stroke-width:0.32"
         d="m 1.574384,-43.91484 0.085825,-6.64 0.5031163,-54.4 0.5031163,-54.4 0.5779543,-1.31407 0.5779542,-1.31407 18.0547389,-26.20593 18.054739,-26.20594 0.697571,-10.4 0.697575,-10.4 1.206,-6.47947 1.206,-6.47947 0.199901,-6.4e-4 0.1999,-6.4e-4 2.427456,1.77275 2.42746,1.77275 5.759363,-3.84818 5.759367,-3.84819 3.021485,4.6034 3.021485,4.6034 2.95727,4.53056 2.957271,4.53055 0.224412,-0.25852 0.224413,-0.25852 1.685767,-7.04 1.685766,-7.04 0.230707,-0.25036 0.230711,-0.25037 8.293632,3.98209 8.293635,3.9821 0.09898,-0.0974 0.09898,-0.0974 -1.458976,-4.94723 -1.458976,-4.94723 v -0.20713 -0.20712 h 1.23217 1.232173 l 8.927834,11.25099 8.92783,11.25099 0.37544,0.52805 0.37545,0.52804 -3.35119,34.33255 -3.35118,34.33254 15.77493,47.32842 15.77492,47.328649 h 0.25657 0.25656 l 29.68471,-20.08 29.6847,-20.079999 23.6955,-12.28196 23.69549,-12.28195 5.19414,-16.51805 5.19414,-16.51804 10.57822,-20.32 10.57823,-20.32 12.31742,-22.88001 12.31742,-22.88 7.98025,-12.42189 7.98024,-12.42189 -1.81544,-16.21811 -1.81545,-16.21811 -0.0297,-0.64 -0.0297,-0.64 1.20938,-4 1.20939,-4 0.24228,-0.2565 0.24228,-0.25651 9.8875,18.39327 9.88749,18.39327 0.19091,-0.21677 0.19094,-0.21676 1.67744,-12 1.67747,-12 0.21162,-0.85609 0.21162,-0.8561 8.96,25.07128 8.96,25.07128 0.20598,-0.21519 0.20599,-0.21518 2.27932,-9.03863 2.27933,-9.03864 2.2761,-9.04136 2.27609,-9.04137 0.22813,-0.25353 0.22813,-0.25353 4.12618,6.89353 4.1262,6.89353 h 0.21684 0.2168 l 4.07228,-4.49918 4.07226,-4.49919 0.23933,0.25919 0.23933,0.25918 2.8991,12.8 2.8991,12.8 7.04052,19.36 7.04051,19.36 4.33622,19.08862 4.33626,19.08862 v 0.40308 0.40307 l -10.22179,18.74831 -10.2218,18.74831 -0.19664,0.51884 -0.19667,0.51885 23.56567,21.04471 23.56566,21.04471 0.97482,0.82026 0.97481,0.82026 26.31581,-8.76759 26.31581,-8.76759 8.03619,-25.93623 8.03616,-25.93622 4.97786,-19.2 4.97786,-19.2 0.27392,-0.65995 0.27388,-0.65994 18.02724,-23.18006 18.0272,-23.18006 2.96336,-5.6 2.96333,-5.6 0.004,5.68128 0.004,5.68128 7.66473,-3.83491 7.66474,-3.83493 3.03779,5.83364 3.03779,5.83364 1.75008,3.16478 1.75005,3.16477 0.29843,-1.08477 0.29844,-1.08478 1.56899,-6.63802 1.56896,-6.63801 0.16163,-0.002 0.16163,-0.002 0.76003,1.96006 0.76004,1.96006 -0.173,3.87994 -0.17296,3.87994 -3.84662,19.84 -3.84659,19.84 -0.50666,2.72098 -0.50662,2.72098 5.79699,14.87902 5.79696,14.87902 7.32758,20.11682 7.32759,20.11682 v 12.27171 12.27171 l 2.72,9.66029 2.72,9.660285 V -64.2659 -37.274718 H 308.45348 1.4882646 l 0.085825,-6.640001 z"
         id="path561" />
      <path
         style="fill:#969696;stroke-width:0.32"
         d="m 1.573397,-43.11452 0.074425,-5.84032 0.5111461,-55.2 0.511146,-55.2 0.5633787,-1.28 0.5633786,-1.28 18.0779616,-26.24 18.077961,-26.24001 0.708618,-10.56 0.708615,-10.56 1.144096,-6.08 1.144096,-6.08 0.226467,-0.25008 0.226464,-0.25009 2.44127,1.78284 2.441271,1.78284 5.74632,-3.83947 5.74632,-3.83947 5.984164,9.10672 5.984163,9.10671 h 0.231235 0.231239 l 0.38254,-1.84 0.382544,-1.84 1.311696,-5.44 1.311696,-5.44 0.210864,-0.23818 0.210868,-0.23818 8.274058,4.00328 8.274057,4.00327 0.146996,-0.147 0.146998,-0.14699 -1.332768,-4.5781 -1.332768,-4.5781 -0.164032,-0.56 -0.164035,-0.56 1.061565,0.005 1.061564,0.005 0.36794,0.23509 0.367939,0.2351 9.159056,11.52 9.15905,11.52 -0.16218,1.12 -0.16217,1.12 -3.2232,33.22364 -3.2232,33.22364 15.77757,47.33637 15.77757,47.336369 h 0.26951 0.26951 l 29.63408,-20.048948 29.63408,-20.048941 23.73121,-12.3068 23.73122,-12.3068 5.19833,-16.52426 5.19833,-16.52425 10.24735,-19.68 10.24735,-19.68 12.65202,-23.52001 12.65203,-23.52 7.97429,-12.42189 7.97428,-12.42189 -1.81605,-16.21811 -1.81605,-16.21811 -0.005,-0.64 -0.005,-0.64 1.19701,-4 1.19701,-4 0.23066,-0.2565 0.23067,-0.25651 9.8875,18.39327 9.88749,18.39327 0.19091,-0.21677 0.19094,-0.21676 1.67744,-12 1.67748,-12 0.21161,-0.84215 0.21162,-0.84215 8.96,25.05965 8.96,25.05965 0.21683,-0.2175 0.21683,-0.2175 4.20388,-16.64 4.20387,-16.64 0.48998,-1.70741 0.48995,-1.7074 0.39629,0.5874 0.39629,0.58741 3.61747,6.08 3.61744,6.08 0.35559,0.37142 0.35558,0.37142 4.13142,-4.62401 4.1314,-4.624 0.23273,0.25258 0.23274,0.25259 2.8991,12.8 2.89911,12.8 7.04051,19.36 7.04051,19.36 4.35741,19.18177 4.35741,19.18176 -0.13277,0.49824 -0.13277,0.49824 -10.28841,18.85162 -10.28839,18.85161 v 0.25569 0.25569 l 23.74759,21.2127 23.74758,21.21269 0.78118,0.62157 0.78116,0.62158 26.31481,-8.76726 26.31485,-8.76726 8.03415,-25.93432 8.03414,-25.93431 5.11206,-19.64459 5.11207,-19.64459 1.74512,-2.27541 1.74509,-2.27542 16.6535,-21.4326 16.65347,-21.43261 2.72311,-5.28739 2.7231,-5.2874 0.009,5.68128 0.009,5.68128 7.67693,-3.84101 7.6769,-3.84102 1.41158,2.79973 1.41158,2.79974 3.36637,6.35654 3.36637,6.35655 0.29434,-1.07655 0.29433,-1.07654 1.5682,-6.64 1.56822,-6.64 h 0.20358 0.20356 l 0.72307,1.93344 0.72307,1.93344 -0.16714,3.58656 -0.16713,3.58656 -4.37645,22.70662 -4.37645,22.70662 6.40954,16.49338 6.40957,16.49339 6.72998,18.51652 6.72998,18.51654 v 12.28074 12.28074 l 2.72,9.68027 2.72,9.680276 v 26.962459 26.962455 l -306.96001,3.2e-4 -306.9600056,3.2e-4 0.074425,-5.84032 z"
         id="path559" />
      <path
         style="fill:#8a8a8a;stroke-width:0.32"
         d="m 1.6541458,-45.67484 -0.00483,-8.4 0.5137279,-52.64 0.5137279,-52.64 0.5614689,-1.28 0.5614688,-1.28 18.0828197,-26.24 18.082819,-26.24001 0.696083,-10.4 0.696087,-10.4 1.147933,-6.24 1.147936,-6.24 0.213078,-0.23428 0.213075,-0.23429 2.480474,1.79783 2.480471,1.79783 5.587741,-3.72354 5.587741,-3.72355 0.241504,0.003 0.2415,0.003 5.920001,9.08339 5.92,9.08339 0.189891,-0.20615 0.189891,-0.20615 1.688496,-7.04 1.688499,-7.04 0.201613,-0.37295 0.20161,-0.37295 8.48,4.0867 8.48,4.0867 0.05872,-0.0391 0.05872,-0.0391 -1.57392,-5.27461 -1.573923,-5.27485 -0.0048,-0.08 -0.0048,-0.08 0.88,0.0225 0.88,0.0225 0.524397,0.21751 0.5244,0.2175 9.160164,11.52 9.16018,11.52 -0.16158,1.12 -0.16157,1.12 -3.21487,33.28001 -3.21487,33.28 15.81125,47.43394 15.81125,47.433934 29.8292,-20.179146 29.82919,-20.179148 23.76945,-12.32578 23.76946,-12.32579 5.20222,-16.52901 5.20222,-16.529 10.24316,-19.68 10.24315,-19.68001 12.65347,-23.52 12.65346,-23.52 7.97113,-12.4038 7.97113,-12.40381 -1.81806,-16.23619 -1.81807,-16.2362 -0.005,-0.64 -0.005,-0.64 1.19701,-4 1.19701,-4 0.22088,-0.24672 0.22088,-0.24672 9.89728,18.38923 9.89728,18.38922 0.19091,-0.2225 0.19094,-0.22251 1.67223,-12 1.67225,-12 0.23159,-0.76426 0.23158,-0.76426 8.94525,25.00071 8.94525,25.00072 0.16,0.003 0.16,0.003 4.60202,-18.15928 4.60198,-18.15929 0.19802,-0.36742 0.19798,-0.36742 4.16,6.99877 4.16,6.99877 0.16,0.002 0.16,0.002 4.13635,-4.6411 4.13632,-4.6411 0.22275,0.24766 0.22279,0.24767 2.89693,12.80886 2.89692,12.80886 7.04807,19.39256 7.04806,19.39256 4.35351,19.15401 4.3535,19.154 -0.12921,0.48458 -0.12919,0.48457 -10.28841,18.85162 -10.28839,18.85161 v 0.25968 0.25966 l 24.24,21.64878 24.24,21.64878 0.38842,0.14973 0.38845,0.14973 26.21987,-8.73777 26.21987,-8.73777 8.03584,-25.93202 8.03587,-25.93203 5.10544,-19.61107 5.10548,-19.61107 0.41036,-0.57958 0.4104,-0.57958 18.08001,-23.26796 18.08,-23.26797 2.6231,-5.18138 2.62307,-5.18139 0.017,5.68128 0.017,5.68128 7.67779,-3.84145 7.67776,-3.84145 2.23936,4.40017 2.23933,4.40017 2.54605,4.79007 2.54602,4.79008 0.15504,-0.47008 0.15504,-0.47007 1.6648,-7.04 1.6648,-7.04 0.16179,-0.28191 0.16179,-0.28191 0.78189,1.88191 0.78189,1.88191 -0.15085,3.68 -0.15085,3.68 -4.37904,22.69644 -4.37904,22.69643 5.98416,15.38357 5.98419,15.38356 7.15904,19.67479 7.15904,19.67478 v 12.2624 12.26241 l 2.72,9.67946 2.72,9.679454 v 26.943354 26.943355 H 308.5391 1.659094 l -0.00483,-8.4 z"
         id="path557" />
      <path
         style="fill:#777777;stroke-width:0.32"
         d="m 1.6537533,-45.03484 -0.00522,-7.76 0.5065244,-53.28 0.5065244,-53.28 0.6986948,-1.44475 0.6986948,-1.44474 17.9650413,-26.07526 17.965043,-26.07526 0.68623,-10.4 0.686231,-10.4 1.150669,-6.24 1.150668,-6.24 0.208346,-0.23428 0.208342,-0.23429 2.480474,1.79783 2.480471,1.79783 5.587741,-3.72354 5.587741,-3.72355 0.241504,0.004 0.2415,0.004 5.920001,9.09252 5.92,9.09253 0.195683,-0.21672 0.195683,-0.21672 1.681888,-7.04 1.681885,-7.04 0.202432,-0.35231 0.202429,-0.35231 8.48,4.07923 8.48,4.07922 0.0643,-0.0579 0.0643,-0.0579 -1.547005,-5.26903 -1.547004,-5.26903 0.224179,-0.0872 0.224179,-0.0872 1.136826,0.24716 1.136825,0.24716 9.153896,11.52 9.15391,11.52 -0.14556,0.96 -0.14555,0.96 -3.24416,33.48746 -3.24417,33.48747 15.76132,47.31254 15.76132,47.312536 0.0702,0.08733 0.0702,0.08733 29.85738,-20.198864 29.85737,-20.198862 23.74388,-12.31067 23.74388,-12.31067 5.20764,-16.5378 5.20765,-16.5378 10.08084,-19.36 10.08084,-19.36 12.63788,-23.52 12.63787,-23.52 8.14749,-12.71391 8.14748,-12.71391 -1.81916,-16.24609 -1.81917,-16.24609 -0.005,-0.64 -0.005,-0.64 1.19701,-4 1.19701,-4 0.21191,-0.23776 0.21192,-0.23775 9.90062,18.38737 9.90064,18.38738 0.19654,-0.22962 0.19654,-0.22962 1.67223,-12 1.67225,-12 0.22813,-0.75386 0.2281,-0.75386 8.94874,24.99177 8.9487,24.99177 0.16,0.001 0.16,0.001 4.60832,-18.15927 4.60829,-18.15926 0.19171,-0.36742 0.19168,-0.36742 4.16,6.99877 4.16,6.99877 0.16106,0.009 0.16108,0.009 4.14208,-4.64084 4.14212,-4.64083 0.21267,0.24083 0.21267,0.24084 2.80096,12.48 2.80099,12.48 7.1305,19.68 7.1305,19.68 4.40208,19.37806 4.40208,19.37806 -10.45773,19.16947 -10.4577,19.16947 0.14269,0.37186 0.14269,0.37187 24.37667,21.76432 24.37667,21.76431 26.25005,-8.75146 26.25005,-8.75147 0.0961,-0.0961 0.0962,-0.0961 7.89392,-25.42672 7.89392,-25.42672 5.25929,-20.14921 5.25933,-20.14921 0.27008,-0.34018 0.27005,-0.34018 18.03901,-23.2 18.03898,-23.2 2.78716,-5.44 2.78717,-5.44 0.0134,5.68 0.0134,5.68 h 0.16266 0.16269 l 7.37302,-3.68919 7.37302,-3.68918 0.27824,0.17196 0.27824,0.17197 3.52042,6.79722 3.52039,6.79722 1.10505,2.03512 1.10509,2.03512 0.1576,-0.27512 0.1576,-0.27512 1.6648,-7.04 1.6648,-7.04 0.16314,-0.48 0.16313,-0.48 0.8032,1.92 0.80323,1.92 -0.16304,3.68 -0.16307,3.68 -4.37177,22.69879 -4.37175,22.69878 6.58243,16.98122 6.58244,16.98121 6.56422,18.07429 6.56422,18.07428 v 12.29719 12.29719 l 2.72,9.64785 2.72,9.647837 v 26.940686 26.940682 H 308.53926 1.659254 l -0.00522,-7.76 z"
         id="path555" />
      <path
         style="fill:#686868;stroke-width:0.32"
         d="m 1.6526797,-43.91484 -0.00629,-6.64 0.4956941,-54.08 0.4956941,-54.08 0.3133467,-1.1663 0.3133468,-1.1663 17.1530966,-24.90404 17.153098,-24.90405 1.210419,-1.78242 1.21042,-1.78242 0.690579,-10.38724 0.690576,-10.38724 1.116569,-6.08 1.116573,-6.08 0.147744,-0.42918 0.147744,-0.42919 1.678845,1.20248 1.678842,1.20248 0.873264,0.6419 0.873264,0.64191 5.605235,-3.7352 5.605232,-3.7352 0.241504,0.0111 0.241501,0.0111 5.919101,9.0938 5.919101,9.09381 0.197191,-0.2249 0.19719,-0.2249 1.834131,-7.4078 1.834132,-7.4078 6.609577,3.20316 6.609578,3.20315 2,0.91126 2,0.91126 v -0.0909 -0.0908 l -1.564269,-5.33383 -1.564268,-5.33383 1.324268,0.20665 1.324269,0.20665 0.16,0.21327 0.16,0.21327 8.960002,11.29742 8.96,11.29741 -0.0681,1.00073 -0.068,1.00074 -3.25107,33.48263 -3.25107,33.48263 15.76293,47.31737 15.76293,47.317372 0.0769,0.09405 0.0769,0.09405 29.83069,-20.182782 29.83069,-20.18279 23.56859,-12.20076 23.56859,-12.20076 0.22301,-0.19051 0.22301,-0.19051 5.26076,-16.65874 5.26076,-16.65874 9.83462,-18.86126 9.83463,-18.86126 12.80579,-23.84 12.8058,-23.84 8.00636,-12.48 8.00637,-12.48 0.12875,-0.49109 0.12874,-0.49108 -1.81633,-16.14892 -1.81634,-16.14891 -0.016,-0.32001 -0.016,-0.32 1.22495,-4.16 1.22494,-4.16 0.20181,-0.23775 0.20181,-0.23776 9.90621,18.39776 9.90621,18.39776 h 0.16749 0.16752 l 1.72867,-12.24 1.72867,-12.24 0.19188,-0.74388 0.19187,-0.74388 8.95197,24.98334 8.952,24.98334 0.16,3.2e-4 0.16,3.2e-4 4.61107,-18.1599 4.61104,-18.1599 0.21846,-0.25353 0.2185,-0.25353 4.12618,6.89353 4.1262,6.89353 h 0.18186 0.18186 l 4.1343,-4.63211 4.1343,-4.63211 0.20314,0.23211 0.20314,0.23211 2.93356,12.96 2.93357,12.96 7.01437,19.2697 7.01437,19.26969 4.38256,19.29134 4.38256,19.29135 -10.55351,19.33917 -10.55353,19.33918 4.348,3.89464 4.348,3.89464 20.26522,18.0908 20.26518,18.0908 26.25591,-8.75341 26.25587,-8.75341 0.10553,-0.10554 0.10557,-0.10555 7.98528,-25.7467 7.98528,-25.7467 5.16138,-19.80392 5.16141,-19.80393 10.45654,-13.47607 10.45651,-13.47608 7.96762,-10.24 7.96762,-10.24 2.60252,-5.12 2.60256,-5.12 0.0876,5.52 0.0875,5.52 h 0.1551 0.15514 l 7.35465,-3.68 7.35466,-3.68 h 0.14701 0.14701 l 1.09225,2 1.09223,2 3.59795,6.96 3.59795,6.96 h 0.20662 0.20663 l 1.716,-7.28 1.71603,-7.28 0.23703,-0.25818 0.23699,-0.25819 0.73341,1.96109 0.7334,1.96109 -0.19862,3.47115 -0.19859,3.47116 -3.50637,18.18594 -3.50637,18.18594 -0.84314,4.48157 -0.84313,4.48157 5.97638,15.35843 5.97639,15.35843 7.16413,19.67479 7.16416,19.67478 v 12.3059 12.3059 l 2.72,9.64784 2.72,9.647851 v 26.931473 26.931476 H 308.53898 1.6589659 l -0.00629,-6.64 z"
         id="path553" />
      <path
         style="fill:#575757;stroke-width:0.32"
         d="m 1.6513688,-42.63484 -0.0076,-5.36 0.5056632,-55.52 0.5056633,-55.52 0.4238909,-1.16867 0.4238909,-1.16867 17.3697689,-25.23133 17.369768,-25.23134 0.889303,-1.28 0.889302,-1.28 0.677085,-10.4 0.677085,-10.4 1.121059,-6.08 1.121063,-6.08 0.141158,-0.42701 0.141155,-0.42702 1.679677,1.21484 1.679677,1.21483 0.873264,0.62738 0.873264,0.62738 5.605235,-3.7352 5.605233,-3.7352 0.241504,0.0189 0.2415,0.0189 5.920001,9.0981 5.92,9.0981 0.169171,0.003 0.169171,0.003 1.724659,-7.18821 1.724656,-7.18822 0.245466,-0.39716 0.245466,-0.39718 8.388589,4.07084 8.388592,4.07083 0.12599,-0.12599 0.125994,-0.126 -1.565014,-5.23945 -1.565015,-5.23946 0.03114,-0.0286 0.03114,-0.0286 1.28,0.14186 1.28,0.14187 9.119996,11.53349 9.12,11.53349 -0.0576,0.83322 -0.0576,0.83322 -3.26705,33.62592 -3.26704,33.62593 15.7685,47.33408 15.7685,47.334075 0.0825,0.0996 0.0825,0.0996 29.85804,-20.199319 29.85805,-20.199316 23.53569,-12.18686 23.53569,-12.18686 0.23513,-0.20456 0.23514,-0.20456 5.26045,-16.65605 5.26046,-16.65605 11.18879,-21.41282 11.18878,-21.41281 11.82481,-21.92 11.8248,-21.92 7.59544,-11.79798 7.59543,-11.79798 0.1633,-0.42554 0.16329,-0.42553 -1.83929,-16.58067 -1.8393,-16.58068 1.22334,-4.15581 1.22333,-4.15581 0.19367,-0.22962 0.19367,-0.22962 9.90185,18.38962 9.90182,18.38962 h 0.18 0.18003 l 1.72868,-12.24 1.72867,-12.24 0.18909,-0.7335 0.18908,-0.73349 8.95085,24.97349 8.95085,24.9735 h 0.16525 0.16528 l 4.6159,-18.07377 4.61594,-18.07377 0.21114,-0.34164 0.21116,-0.34164 4.1273,6.89541 4.12733,6.89541 h 0.19478 0.19479 l 4.1295,-4.62149 4.12947,-4.62149 0.18832,0.22149 0.18832,0.22149 2.93741,12.96 2.93738,12.96 6.99542,19.20976 6.99546,19.20976 4.4008,19.35761 4.4008,19.35761 -10.46141,19.17097 -10.46138,19.17097 -0.0606,0.20193 -0.0605,0.20192 24.57427,21.94903 24.57428,21.94904 26.26681,-8.75705 26.26682,-8.75706 0.11405,-0.11403 0.11402,-0.11404 7.98176,-25.73821 7.98172,-25.73821 5.16282,-19.80119 5.16285,-19.80119 18.35801,-23.63588 18.35802,-23.63587 2.66231,-5.18178 2.66227,-5.18178 0.0875,5.49884 0.0875,5.49885 h 0.15511 0.15513 l 7.41834,-3.71186 7.4183,-3.71185 0.33901,0.46482 0.33901,0.46483 4.48,8.66537 4.48,8.66537 0.20083,-0.21834 0.20083,-0.21834 1.68778,-7.2 1.68774,-7.2 0.2256,-0.25818 0.22557,-0.25819 0.73267,1.95911 0.73264,1.9591 -0.21289,3.50542 -0.2129,3.50543 -3.80589,19.75366 -3.80585,19.75365 -0.53012,2.89913 -0.53014,2.89913 5.96771,15.34087 5.96771,15.34087 7.17434,19.72034 7.17437,19.72033 v 12.26302 12.26302 l 2.72,9.67946 2.72,9.679453 v 26.897191 26.897192 H 308.53898 1.6589692 l -0.0076,-5.360001 z"
         id="path551" />
      <path
         style="fill:#474747;stroke-width:0.32"
         d="m 1.6501957,-41.19484 -0.00878,-3.92 0.516567,-56.96 0.516567,-56.96 0.45526,-1.2141 0.4552599,-1.2141 18.0116514,-26.1459 18.011651,-26.14591 0.209536,-0.34393 0.209533,-0.34393 0.663386,-10.21607 0.663389,-10.21607 1.158153,-6.4 1.158154,-6.4 0.194224,-0.2144 0.194224,-0.2144 2.35769,1.7344 2.357689,1.7344 h 0.286448 0.286448 l 5.508436,-3.67599 5.508438,-3.676 0.377831,0.396 0.37783,0.39599 5.653831,8.64 5.65383,8.64 0.224259,0.0828 0.224256,0.0828 1.725338,-7.19105 1.725335,-7.19104 0.232972,-0.37696 0.232973,-0.37695 8.402324,4.04937 8.402326,4.04938 0.133754,-0.13375 0.13375,-0.13376 -1.462877,-4.96046 -1.46288,-4.96047 v -0.27844 -0.27845 l 1.2,0.12454 1.2,0.12454 9.147628,11.56392 9.14763,11.56391 -3.35749,34.4104 -3.3575,34.4104 15.77368,47.3496 15.77367,47.349609 0.0907,0.107875 0.0907,0.107876 30.02546,-20.298855 30.02546,-20.298855 23.36,-12.08934 23.36,-12.08934 0.24619,-0.22187 0.24619,-0.22187 5.25286,-16.62201 5.25286,-16.62201 10.76849,-20.6358 10.76849,-20.6358 11.86963,-22.08001 11.86962,-22.08 7.98517,-12.44733 7.98517,-12.44733 0.14784,-0.56533 0.14784,-0.56534 -1.83013,-16.46971 -1.83014,-16.46972 1.21191,-4.11762 1.21191,-4.11762 0.19367,-0.22962 0.19367,-0.22962 9.90185,18.38962 9.90183,18.38962 h 0.18 0.18003 l 1.72867,-12.24 1.72867,-12.24 0.18647,-0.72366 0.18646,-0.72367 8.94733,24.96367 8.94729,24.96366 h 0.17309 0.17309 l 4.59539,-18 4.59543,-18 0.22633,-0.4215 0.22634,-0.42151 4.13097,6.90151 4.13098,6.9015 h 0.19104 0.19101 l 4.08832,-4.56 4.08829,-4.56 h 0.17408 0.17411 l 2.94422,12.96 2.94426,12.96 7.04208,19.36 7.04208,19.36 4.39642,19.36001 4.39638,19.36 -10.42822,19.10909 -10.42826,19.10909 -0.0836,0.28268 -0.0836,0.28269 24.56665,21.94006 24.56669,21.94006 26.2744,-8.75959 26.27443,-8.75959 0.1312,-0.13122 0.13124,-0.13121 7.83651,-25.24103 7.83651,-25.24103 5.29075,-20.25958 5.29076,-20.25958 18.46041,-23.79839 18.46045,-23.7984 2.6297,-5.06203 2.62972,-5.06203 0.0102,5.52 0.0102,5.52 h 0.16266 0.16269 l 7.41833,-3.71185 7.41831,-3.71186 0.33901,0.47842 0.33901,0.47842 4.48,8.65134 4.48,8.65134 0.20358,-0.2179 0.20358,-0.21791 1.4881,-6.24 1.48813,-6.24 0.34035,-1.27322 0.34035,-1.27321 0.79603,1.91321 0.796,1.91322 -0.19516,3.52 -0.19517,3.52 -4.13635,21.6 -4.13636,21.60001 -0.203,1.1513 -0.20304,1.1513 6.3878,16.4487 6.38781,16.4487 6.75869,18.59784 6.75866,18.59784 v 12.28462 12.28461 l 2.72,9.68028 2.72,9.680271 v 26.877271 26.877268 H 308.53889 1.6588764 l -0.00878,-3.92 z"
         id="path549" />
      <path
         style="fill:#363636;stroke-width:0.32"
         d="m 1.7590918,-55.914841 0.204637,-18.64 0.3580641,-42.239999 0.3580639,-42.24 0.4338589,-1.16725 0.4338589,-1.16723 17.7162834,-25.71277 17.716284,-25.71276 0.521916,-0.8 0.52192,-0.8 0.67081,-10.24 0.67081,-10.24 1.131309,-6.24 1.131308,-6.24 0.131322,-0.41559 0.131322,-0.4156 2.400963,1.7756 2.400966,1.77559 h 0.327229 0.327232 l 5.491348,-3.66459 5.491347,-3.66459 0.221901,0.13714 0.221897,0.13714 5.857431,8.96745 5.857427,8.96745 h 0.192084 0.192083 l 1.868963,-7.52 1.868963,-7.52 h 0.125258 0.125257 l 8.362775,4.00944 8.362778,4.00944 0.14905,-0.14904 0.149046,-0.14905 -1.472941,-4.97494 -1.472941,-4.97494 v -0.16546 -0.16545 l 1.2,0.019 1.2,0.019 9.140155,11.58095 9.14015,11.58095 -3.35517,34.4 -3.35516,34.4 15.77882,47.36001 15.77882,47.359997 0.0958,0.112937 0.0958,0.112938 30.02039,-20.29481 30.0204,-20.294812 23.36,-12.09089 23.36,-12.0909 0.2709,-0.25414 0.27091,-0.25413 5.2416,-16.5931 5.24161,-16.59307 10.6031,-20.32 10.6031,-20.32 12.32066,-22.87467 12.32066,-22.87466 7.80373,-12.13848 7.80373,-12.13849 9.6e-4,-0.66686 9.6e-4,-0.66685 -1.79664,-16.14403 -1.79664,-16.14404 1.18735,-4.01596 1.18735,-4.01597 0.20872,-0.3782 0.20872,-0.3782 9.89313,18.3782 9.89316,18.3782 h 0.19379 0.19382 l 1.72867,-12.24 1.72868,-12.24 0.18486,-0.7177 0.18486,-0.71771 8.9465,24.95771 8.9465,24.9577 h 0.18665 0.18666 l 4.59069,-18 4.59065,-18 0.20381,-0.3927 0.20381,-0.39271 4.11373,6.87271 4.11372,6.8727 h 0.23751 0.23753 l 4.1201,-4.60717 4.12013,-4.60718 0.23597,0.52718 0.236,0.52717 2.86979,12.64 2.86979,12.64 6.99619,19.2 6.9962,19.2 4.39424,19.36001 4.39424,19.36 -10.39172,19.0465 -10.39171,19.0465 -0.10448,0.35394 -0.10451,0.35394 24.55613,21.93466 24.55616,21.93466 26.39792,-8.80003 26.39795,-8.80003 1.26749,-4.05507 1.26749,-4.05507 6.60419,-21.28 6.60419,-21.28 5.24602,-20.09728 5.24605,-20.09728 0.22672,-0.38272 0.22675,-0.38273 18.20013,-23.44473 18.20016,-23.44475 2.69529,-5.19526 2.6953,-5.19526 0.006,5.52 0.006,5.52 h 0.16266 0.16269 l 7.3991,-3.70223 7.39907,-3.70223 0.23642,0.26223 0.23638,0.26223 4.60183,8.87402 4.60185,8.87402 0.16259,0.006 0.1626,0.006 1.56822,-6.64 1.56819,-6.64 0.30317,-1.10852 0.30317,-1.10852 0.79261,1.90852 0.7926,1.90852 -0.20214,3.52 -0.20214,3.52 -4.30445,22.4157 -4.30442,22.4157 v 0.4332 0.4332 l 6.11082,15.7111 6.11081,15.7111 7.00919,19.28518 7.00918,19.28517 v 12.30743 12.30744 l 2.72,9.61478 2.72,9.614792 v 26.872606 26.872608 H 308.48655 1.5542852 l 0.204637,-18.64 z"
         id="path547" />
      <path
         style="fill:#262626;stroke-width:0.32"
         d="m 1.6794928,-42.79484 0.02052,-5.52 0.5687744,-55.68 0.5687744,-55.68 0.4507053,-0.94829 0.4507053,-0.94828 18.1481798,-26.3483 18.14818,-26.3483 0.675155,-10.30342 0.675156,-10.30342 1.109363,-6.08 1.109363,-6.08 0.165354,-0.54893 0.165356,-0.54894 2.364916,1.74894 2.364915,1.74893 h 0.341168 0.341171 l 5.508436,-3.67599 5.508438,-3.676 0.365719,0.396 0.365718,0.39599 5.682109,8.72 5.682109,8.72 h 0.206493 0.206496 l 1.868963,-7.52 1.868963,-7.52 h 0.09994 0.09994 l 8.379892,4.01765 8.379891,4.01764 0.159549,-0.15955 0.159549,-0.15954 -1.332768,-4.5781 -1.332768,-4.5781 -0.170698,-0.58099 -0.170697,-0.58101 1.223379,0.10101 1.223379,0.10099 9.032649,11.36 9.03265,11.36 0.0122,1.04911 0.0122,1.04911 -3.2,32.78179 -3.2,32.78178 v 0.8732 0.87319 l 15.75116,47.30285 15.75116,47.302835 0.33009,-0.126665 0.33009,-0.126666 29.43875,-19.927626 29.43875,-19.927628 23.68,-12.28881 23.68,-12.2888 0.35236,-0.38383 0.35236,-0.38383 5.18342,-16.48 5.18342,-16.48 10.26389,-19.68 10.26389,-19.68 12.6627,-23.52001 12.66269,-23.52 7.87494,-12.24818 7.87495,-12.24818 -1.87311,-16.71182 -1.87311,-16.71182 1.1676,-4 1.1676,-4 0.2082,-0.3692 0.2082,-0.36921 9.87863,18.36921 9.87859,18.3692 h 0.20886 0.20887 l 1.72867,-12.24 1.72867,-12.24 0.18384,-0.70484 0.18387,-0.70485 8.93658,24.94485 8.93658,24.94484 h 0.20345 0.20343 l 4.5863,-18 4.5863,-18 0.20234,-0.3927 0.2023,-0.39271 4.11373,6.87271 4.11373,6.8727 h 0.24301 0.24301 l 4.17635,-4.62957 4.17638,-4.62957 0.16307,0.54957 0.16304,0.54957 2.87194,12.64 2.87194,12.64 7.03917,19.36 7.0392,19.36 4.3559,19.20519 4.3559,19.20518 -10.55955,19.35482 -10.55958,19.35482 0.54774,0.51608 0.54775,0.51608 24.07904,21.47425 24.079,21.47425 0.401,-0.12498 0.40096,-0.12498 25.76,-8.54372 25.76,-8.54371 0.34963,-0.36164 0.34963,-0.36163 8.00784,-25.92 8.00784,-25.92 5.05767,-19.44243 5.05766,-19.44242 18.47962,-23.79108 18.47961,-23.79108 2.56836,-5.0865 2.56835,-5.0865 0.017,5.52 0.017,5.52 h 0.16265 0.16269 l 7.35466,-3.68 7.35466,-3.68 h 0.13142 0.13142 l 4.74445,9.12 4.74442,9.12 h 0.17654 0.17655 l 1.71107,-7.28 1.71107,-7.28 0.23338,-0.25818 0.23337,-0.25818 0.7136,1.90813 0.7136,1.90813 -0.22256,3.31005 -0.22256,3.31005 -4.28521,22.36776 -4.28522,22.36777 v 0.52493 0.52494 l 5.79242,14.8673 5.79241,14.86731 7.32759,20.11682 7.32758,20.11682 v 12.30037 12.30037 l 2.72,9.67945 2.72,9.679461 v 26.783355 26.783354 H 308.53911 1.6591004 l 0.02052,-5.52 z"
         id="path545" />
      <path
         style="fill:#1a1a1a;stroke-width:0.32"
         d="m 576.44107,-37.83484 -0.28045,-0.56 -1.05484,-2.659968 -1.05482,-2.66 0.284,-0.255296 0.28403,-0.255328 4.96,-3.453984 4.96,-3.453952 0.104,-0.08141 0.104,-0.08138 3.82903,-14.950257 3.82902,-14.950243 -0.093,-0.252525 -0.093,-0.252525 -8.8,-9.369962 -8.8,-9.36997 -0.58902,-0.74397 -0.58903,-0.74398 1.86903,-2.06139 1.86902,-2.0614 5.71399,-5.92526 5.71398,-5.92527 -2.78966,-16.56597 -2.78967,-16.56597 -0.36432,-0.70004 -0.36432,-0.70003 -10.81018,-10.00269 -10.81017,-10.00269 0.13817,-0.36004 0.13818,-0.36004 2.44973,-9.06349 2.44976,-9.06349 -0.25773,-0.22189 -0.25776,-0.2219 -3.92,-2.8063 -3.92,-2.8063 v -0.25991 -0.25991 l 6.86419,-5.54564 6.86416,-5.54564 -8.62496,-4.31767 -8.62496,-4.31766 0.0808,-0.22232 0.0808,-0.22231 8.38259,-9.06002 8.38259,-9.06003 6.45956,-7.95384 6.45958,-7.95385 1.61175,3.07385 1.61174,3.07384 h 0.20163 0.20163 l 1.72007,-7.28 1.72003,-7.28 0.21459,-0.25416 0.21456,-0.25417 0.68963,1.80206 0.6896,1.80206 -0.19401,3.25211 -0.19402,3.2521 -4.28576,22.39815 -4.28576,22.39815 v 0.69624 0.69624 l 5.94979,15.30561 5.94976,15.30562 7.17024,19.72033 7.17021,19.72034 v 12.31084 12.31085 l 2.72,9.66029 2.72,9.660296 v 26.708529 26.708529 H 596.07034 576.7216 Z m -479.742094,-74.3646 -34.720002,-46.73895 -0.419539,-0.68822 -0.419539,-0.68823 11.394954,-24.64 11.394957,-24.64 0.03037,-0.48 0.03037,-0.48001 -5.054461,-13.6 -5.054461,-13.6 1.363136,-5.52 1.363136,-5.52 h 0.08763 0.08764 l 8.381622,4.02963 8.381626,4.02962 0.185735,-0.18574 0.185734,-0.18573 -1.345024,-4.56389 -1.345021,-4.56389 -0.172653,-0.58099 -0.172652,-0.58101 1.208128,0.10101 1.208124,0.10099 9.123054,11.49465 9.12306,11.49464 -3.36186,34.42536 -3.36186,34.42536 15.00303,45.03196 15.00304,45.031965 -1.49952,1.848036 -1.49951,1.848038 -0.20462,0.06717 -0.20462,0.06717 z m 304.047244,6.75291 -40.43277,-9.54718 -0.0909,-0.10057 -0.0909,-0.10056 8.12906,-15.27123 8.12905,-15.27123 -5.76201,-12.02591 -5.76205,-12.02592 9.60493,-10.53838 9.60489,-10.53837 -3.36614,-22.56793 -3.36615,-22.56793 -7.68208,-17.76817 -7.68208,-17.76817 0.004,-0.86838 0.004,-0.86839 2.37732,-9.23521 2.37734,-9.2352 0.11078,-0.11078 0.11079,-0.11078 4.10973,6.86598 4.10969,6.86599 h 0.25018 0.25017 l 4.07952,-4.50719 4.07952,-4.50719 0.22903,0.42719 0.22905,0.42719 2.7833,12.32 2.78333,12.32 7.0392,19.36 7.03923,19.36 4.44467,19.51386 4.44468,19.51386 -10.56468,19.36614 -10.56464,19.36615 0.89642,0.8 0.89642,0.8 23.7768,21.22776 23.77683,21.22776 0.4631,-0.17772 0.46314,-0.17772 v 0.90302 0.903017 l -0.2056,1.96694 -0.20557,1.966941 -0.19443,-0.03225 -0.1944,-0.03225 -40.43277,-9.547188 z"
         id="path543" />
    </g>
  </g>
</svg>
