<?xml version="1.0" encoding="UTF-8" standalone="no"?>
<!-- Created with Inkscape (http://www.inkscape.org/) -->

<svg
   version="1.1"
   id="svg98"
   width="56.32"
   height="76.480003"
   viewBox="0 0 56.32 76.480003"
   xmlns="http://www.w3.org/2000/svg"
   xmlns:svg="http://www.w3.org/2000/svg">
  <defs
     id="defs102" />
  <g
     id="g104">
    <g
       id="g288"
       transform="translate(-0.00625735,-0.17252621)">
      <path
         style="fill:#fcfcfc;stroke-width:0.32"
         d="M 0.78545456,75.694547 0,74.909094 V 38.400002 1.8909092 L 0.78545456,1.1054546 1.5709091,0.32000001 H 19.481959 37.393008 L 46.856506,9.6360673 56.32,18.952135 v 27.828548 27.828552 l -0.935386,0.935382 -0.935382,0.935386 H 28.01007 1.5709091 Z"
         id="path302" />
      <path
         style="fill:#fafafa;stroke-width:0.32"
         d="M 0.94084778,75.550083 0,74.609235 V 38.400002 2.1907693 L 0.93538461,1.2553847 1.8707692,0.32000001 H 19.522438 37.174106 l 9.578067,9.34859939 9.578067,9.3485996 -0.08512,27.922592 -0.08512,27.92259 -0.728803,0.728812 -0.728803,0.72881 -26.410349,0.08546 -26.4103495,0.08546 z"
         id="path300" />
      <path
         style="fill:#f8f8f8;stroke-width:0.32"
         d="M 0.93538461,75.544617 0,74.609235 V 38.400002 2.1907693 L 0.93538461,1.2553847 1.8707692,0.32000001 19.575385,0.33455608 37.28,0.34911217 46.8,9.7459914 56.32,19.142871 v 27.404456 c 0,29.759575 0.06133,28.724596 -1.751059,29.550375 -0.628471,0.286352 -7.346813,0.382301 -26.768613,0.382301 H 1.8707692 Z"
         id="path298" />
      <path
         style="fill:#f6f6f6;stroke-width:0.32"
         d="M 1.6063064,76.068979 C -0.05837136,75.226694 -5.972064e-4,76.669705 0.082484,38.008843 L 0.16,1.9376805 0.88871885,1.2088403 1.6174377,0.48000002 19.448719,0.4048669 37.28,0.3297338 46.8,9.7763575 56.32,19.222981 v 27.364403 c 0,29.715976 0.0612,28.6846 -1.751059,29.510318 -1.244272,0.566931 -51.8396294,0.539488 -52.9626346,-0.02874 z"
         id="path296" />
      <path
         style="fill:#f3f3f3;stroke-width:0.32"
         d="M 1.6352228,76.036515 C -0.04572284,75.098083 0.02351282,76.700013 0.01133933,38.46411 -9.83136e-4,-0.2397276 -0.08287985,1.5378975 1.7510584,0.70229932 2.3686176,0.42092053 7.1694115,0.32000001 19.937057,0.32000001 H 37.284 L 46.807286,9.8472551 56.33057,19.37451 56.245286,46.960063 56.16,74.545619 l -0.887184,0.88719 -0.887184,0.887194 -25.992816,0.07173 C 7.2162848,76.450179 2.2582922,76.384358 1.6352228,76.036515 Z"
         id="path294" />
      <path
         style="fill:#efefef;stroke-width:0.32"
         d="M 2.08,76.180413 C 1.728,76.034733 1.152,75.595427 0.8,75.204176 0.16798168,74.501683 0.16,74.042355 0.16,38.373678 V 2.2545455 L 1.0471001,1.3672728 1.9342002,0.48000002 19.6071,0.39416574 37.28,0.30833144 46.805286,9.8414209 56.33057,19.37451 56.245286,46.960063 56.16,74.545619 l -0.887184,0.88719 -0.887184,0.887194 -25.832815,0.06264 C 14.344767,76.417094 2.432,76.326089 2.08,76.180413 Z"
         id="path292" />
      <path
         style="fill:#c9c9c9;stroke-width:0.32"
         d="M 37.12,9.6820343 V 0.1640681 l 9.44,9.4359323 C 51.752,14.789763 56,19.072848 56,19.117967 c 0,0.04512 -4.248,0.08203 -9.44,0.08203 h -9.44 z"
         id="path290" />
    </g>
  </g>
</svg>
