<?xml version="1.0" encoding="UTF-8" standalone="no"?>
<!-- Created with Inkscape (http://www.inkscape.org/) -->

<svg
   version="1.1"
   id="svg1"
   width="512"
   height="1010"
   viewBox="0 0 512 1010"
   sodipodi:docname="ComfyUI_temp_oqztj_00015_.png"
   inkscape:export-filename="../Documentos/projects/mainpage/src/assets/PHONE.svg"
   inkscape:export-xdpi="96"
   inkscape:export-ydpi="96"
   xmlns:inkscape="http://www.inkscape.org/namespaces/inkscape"
   xmlns:sodipodi="http://sodipodi.sourceforge.net/DTD/sodipodi-0.dtd"
   xmlns:xlink="http://www.w3.org/1999/xlink"
   xmlns="http://www.w3.org/2000/svg"
   xmlns:svg="http://www.w3.org/2000/svg">
  <defs
     id="defs1">
    <linearGradient
       id="linearGradient28"
       inkscape:collect="always">
      <stop
         style="stop-color:#000000;stop-opacity:0.99999863;"
         offset="0"
         id="stop28" />
      <stop
         style="stop-color:#181818;stop-opacity:1;"
         offset="1"
         id="stop29" />
    </linearGradient>
    <linearGradient
       id="linearGradient26"
       inkscape:collect="always">
      <stop
         style="stop-color:#242424;stop-opacity:1;"
         offset="0"
         id="stop26" />
      <stop
         style="stop-color:#000000;stop-opacity:1;"
         offset="1"
         id="stop27" />
    </linearGradient>
    <linearGradient
       inkscape:collect="always"
       xlink:href="#linearGradient26"
       id="linearGradient27"
       x1="806.08966"
       y1="857.63275"
       x2="851.92664"
       y2="857.63275"
       gradientUnits="userSpaceOnUse" />
    <linearGradient
       inkscape:collect="always"
       xlink:href="#linearGradient28"
       id="linearGradient29"
       x1="1845.1644"
       y1="865.08295"
       x2="1891.0013"
       y2="865.08295"
       gradientUnits="userSpaceOnUse" />
  </defs>
  <sodipodi:namedview
     id="namedview1"
     pagecolor="#ffffff"
     bordercolor="#000000"
     borderopacity="0.25"
     inkscape:showpageshadow="2"
     inkscape:pageopacity="0.0"
     inkscape:pagecheckerboard="0"
     inkscape:deskcolor="#d1d1d1"
     showguides="true">
    <sodipodi:guide
       position="1853.2738,162.0122"
       orientation="0,-1"
       id="guide22"
       inkscape:locked="false" />
  </sodipodi:namedview>
  <g
     inkscape:groupmode="layer"
     id="layer1"
     inkscape:label="ALL"
     transform="matrix(0.47192778,0,0,0.47156967,-380.4161,-144.15664)">
    <rect
       style="display:none;fill:#000000;fill-opacity:1"
       id="rect2"
       width="925.2702"
       height="2029.1633"
       x="888.01361"
       y="361.51578"
       rx="107.64285"
       inkscape:label="screen"
       inkscape:export-filename="../Documentos/projects/mainpage/src/assets/phone_screen.svg"
       inkscape:export-xdpi="96"
       inkscape:export-ydpi="96" />
    <rect
       style="fill:url(#linearGradient27);fill-opacity:1;stroke-width:1.00706"
       id="rect22"
       width="45.837002"
       height="409.96664"
       x="806.08966"
       y="652.64941"
       rx="20.267319"
       inkscape:label="BTN2" />
    <rect
       style="fill:url(#linearGradient29);fill-opacity:1;stroke-width:0.690365"
       id="rect21"
       width="45.837002"
       height="192.66156"
       x="1845.1644"
       y="768.75214"
       rx="20.267319"
       inkscape:label="BTN1" />
    <path
       d="m 978.92578,305.69531 c -5.19374,0 -10.3241,0.26121 -15.37891,0.77149 -5.0548,0.51027 -10.03271,1.26982 -14.92382,2.26562 -4.89111,0.9958 -9.69383,2.22703 -14.39649,3.6836 -4.70265,1.45656 -9.30547,3.13867 -13.79492,5.03125 -4.48945,1.89257 -8.8657,3.99695 -13.11719,6.30078 -4.25148,2.30383 -8.37842,4.80576 -12.36718,7.49609 -3.98877,2.69033 -7.83973,5.56902 -11.54102,8.62109 -3.70129,3.05208 -7.25352,6.27891 -10.64258,9.66797 -3.38906,3.38906 -6.61589,6.93934 -9.66797,10.64063 -3.05207,3.70129 -5.92881,7.55225 -8.61914,11.54101 -2.69033,3.98877 -5.19421,8.11571 -7.49804,12.36719 -2.30384,4.25149 -4.40821,8.62774 -6.30079,13.11719 -1.89257,4.48945 -3.57273,9.09226 -5.02929,13.79492 -1.45657,4.70266 -2.68975,9.50538 -3.68555,14.39648 -0.9958,4.89111 -1.75535,9.87098 -2.26562,14.92579 -0.51028,5.0548 -0.77149,10.18516 -0.77149,15.3789 V 2297.4785 c 0,5.1938 0.26121,10.3241 0.77149,15.3789 0.51027,5.0548 1.26982,10.0347 2.26562,14.9258 0.9958,4.8911 2.22898,9.6938 3.68555,14.3965 1.45656,4.7026 3.13672,9.3055 5.02929,13.7949 1.89258,4.4895 3.99695,8.8657 6.30079,13.1172 2.30383,4.2515 4.80771,8.3765 7.49804,12.3652 2.69033,3.9888 5.56707,7.8417 8.61914,11.543 3.05208,3.7013 6.27891,7.2516 9.66797,10.6406 3.38906,3.3891 6.94129,6.6159 10.64258,9.668 3.70129,3.0521 7.55225,5.9288 11.54102,8.6191 3.98876,2.6904 8.1157,5.1943 12.36718,7.4981 4.25149,2.3038 8.62774,4.4082 13.11719,6.3008 4.48945,1.8925 9.09227,3.5727 13.79492,5.0293 4.70266,1.4565 9.50538,2.6897 14.39649,3.6855 4.89111,0.9958 9.86902,1.7554 14.92382,2.2656 5.05481,0.5103 10.18517,0.7715 15.37891,0.7715 h 739.25002 c 5.1937,0 10.3241,-0.2612 15.3789,-0.7715 5.0548,-0.5102 10.0327,-1.2698 14.9238,-2.2656 4.8911,-0.9958 9.6958,-2.229 14.3985,-3.6855 4.7026,-1.4566 9.3035,-3.1368 13.7929,-5.0293 4.4895,-1.8926 8.8677,-3.997 13.1192,-6.3008 4.2514,-2.3038 8.3764,-4.8077 12.3652,-7.4981 3.9888,-2.6903 7.8397,-5.567 11.541,-8.6191 3.7013,-3.0521 7.2535,-6.2789 10.6426,-9.668 3.389,-3.389 6.6159,-6.9393 9.668,-10.6406 3.052,-3.7013 5.9288,-7.5542 8.6191,-11.543 2.6903,-3.9887 5.1942,-8.1137 7.498,-12.3652 2.3039,-4.2515 4.4083,-8.6277 6.3008,-13.1172 1.8926,-4.4894 3.5728,-9.0923 5.0293,-13.7949 1.4566,-4.7027 2.6898,-9.5054 3.6856,-14.3965 0.9958,-4.8911 1.7553,-9.871 2.2656,-14.9258 0.5103,-5.0548 0.7715,-10.1851 0.7715,-15.3789 V 455.69531 c 0,-5.19374 -0.2612,-10.3241 -0.7715,-15.3789 -0.5103,-5.05481 -1.2698,-10.03468 -2.2656,-14.92579 -0.9958,-4.8911 -2.229,-9.69382 -3.6856,-14.39648 -1.4565,-4.70266 -3.1367,-9.30547 -5.0293,-13.79492 -1.8925,-4.48945 -3.9969,-8.8657 -6.3008,-13.11719 -2.3038,-4.25148 -4.8077,-8.37842 -7.498,-12.36719 -2.6903,-3.98876 -5.5671,-7.83972 -8.6191,-11.54101 -3.0521,-3.70129 -6.279,-7.25157 -9.668,-10.64063 -3.3891,-3.38906 -6.9413,-6.61589 -10.6426,-9.66797 -3.7013,-3.05207 -7.5522,-5.93076 -11.541,-8.62109 -3.9888,-2.69033 -8.1138,-5.19226 -12.3652,-7.49609 -4.2515,-2.30383 -8.6297,-4.40821 -13.1192,-6.30078 -4.4894,-1.89258 -9.0903,-3.57469 -13.7929,-5.03125 -4.7027,-1.45657 -9.5074,-2.6878 -14.3985,-3.6836 -4.8911,-0.9958 -9.869,-1.75535 -14.9238,-2.26562 -5.0548,-0.51028 -10.1852,-0.77149 -15.3789,-0.77149 z m 16.73047,55.82031 h 709.98435 c 7.4543,0 14.7282,0.75048 21.7481,2.17969 7.0199,1.42921 13.787,3.53761 20.2304,6.25391 6.4435,2.7163 12.5623,6.04108 18.2872,9.90234 5.7248,3.86127 11.0538,8.25894 15.9179,13.12305 4.8641,4.86411 9.2638,10.19314 13.125,15.91797 3.8613,5.72483 7.1861,11.84563 9.9024,18.28906 2.7163,6.44343 4.8227,13.21056 6.2519,20.23047 1.4292,7.0199 2.1797,14.29183 2.1797,21.74609 v 1813.8789 c 0,7.4543 -0.7505,14.7262 -2.1797,21.7461 -1.4292,7.0199 -3.5356,13.787 -6.2519,20.2305 -2.7163,6.4434 -6.0411,12.5623 -9.9024,18.2871 -3.8612,5.7248 -8.2609,11.0558 -13.125,15.9199 -4.8641,4.8641 -10.1931,9.2618 -15.9179,13.1231 -5.7249,3.8612 -11.8437,7.186 -18.2872,9.9023 -6.4434,2.7163 -13.2105,4.8247 -20.2304,6.2539 -7.0199,1.4292 -14.2938,2.1797 -21.7481,2.1797 H 995.65625 c -7.45426,0 -14.72619,-0.7505 -21.74609,-2.1797 -7.01991,-1.4292 -13.78705,-3.5376 -20.23047,-6.2539 -6.44343,-2.7163 -12.56424,-6.0411 -18.28907,-9.9023 -5.72482,-3.8613 -11.05386,-8.259 -15.91796,-13.1231 -4.86411,-4.8641 -9.26179,-10.1951 -13.12305,-15.9199 -3.86126,-5.7248 -7.18605,-11.8437 -9.90234,-18.2871 -2.7163,-6.4435 -4.8247,-13.2106 -6.25391,-20.2305 -1.42921,-7.0199 -2.17969,-14.2918 -2.17969,-21.7461 V 469.1582 c 0,-7.45426 0.75048,-14.72619 2.17969,-21.74609 1.42921,-7.01991 3.53761,-13.78704 6.25391,-20.23047 2.71629,-6.44343 6.04108,-12.56423 9.90234,-18.28906 3.86126,-5.72483 8.25894,-11.05386 13.12305,-15.91797 4.8641,-4.86411 10.19314,-9.26178 15.91796,-13.12305 5.72483,-3.86126 11.84564,-7.18604 18.28907,-9.90234 6.44342,-2.7163 13.21056,-4.8247 20.23047,-6.25391 7.0199,-1.42921 14.29183,-2.17969 21.74609,-2.17969 z"
       style="display:inline"
       id="path22"
       inkscape:label="BODY" />
    <path
       id="path26"
       style="display:inline;fill:#b3b3b3;fill-opacity:0.196602"
       inkscape:label="REFLEX2"
       d="m 854.36914,854.32422 c 0,224.23958 0,448.47918 0,672.71878 2.73828,-3.0742 5.47656,-6.1485 8.21484,-9.2227 10e-4,-239.0729 0.003,-478.1458 0.004,-717.21874 -2.73893,-8.34896 -5.47786,-16.69791 -8.2168,-25.04687 -6.5e-4,26.25651 -10e-4,52.51302 -0.002,78.76953 z" />
    <path
       id="path25"
       style="display:inline;fill:#b3b3b3;fill-opacity:0.196602"
       inkscape:label="REFLEX1"
       d="m 1718.6719,331.15039 c -19.1283,0 -38.2565,0 -57.3848,0 -2.0195,1.64583 -4.0391,3.29167 -6.0586,4.9375 17.6087,0.0131 35.2178,-0.0205 52.8262,0.0215 28.3468,0.42307 56.4852,10.20817 78.899,27.58365 22.3541,17.21491 39.0689,41.69713 46.6908,68.88337 3.7155,13.11341 5.3538,26.79058 5.0743,40.40993 0,0.36198 6e-4,1.20074 0,1.74531 0,603.10505 0,1206.21025 0,1809.31525 -0.1471,28.6641 -9.8246,57.229 -27.3352,79.9459 -17.6748,23.1311 -43.1322,40.256 -71.3135,47.6377 -12.4953,3.3222 -25.469,4.7568 -38.3885,4.4886 -0.3524,0 -1.1648,7e-4 -1.6933,0 -212.349,0 -424.6979,0 -637.0469,0 -1.2207,1.9694 -2.4414,3.9388 -3.6621,5.9082 220.3987,0 440.7975,0.01 661.196,0 23.9165,-0.3758 47.7099,-7.7672 67.5066,-21.2203 19.3316,-13.0303 34.8898,-31.6006 44.2414,-52.9629 6.4809,-14.7065 10.038,-30.6932 10.4388,-46.7577 0.01,-0.3367 0.022,-1.2005 0.032,-1.7392 0.019,-0.8195 0.018,-1.4281 0.026,-2.2858 0,-16.9177 0.01,-33.8357 0,-50.7535 0.01,-597.2327 0.013,-1194.4654 0.011,-1791.69807 0,-0.31344 -0.016,-1.16739 -0.026,-1.68981 -0.4243,-20.56623 -5.9664,-41.03104 -16.1812,-58.90064 -0.311,-0.55971 -0.4808,-0.84568 -0.8453,-1.46576 -11.2459,-19.25203 -27.8151,-35.33023 -47.3583,-46.05286 -9.5831,-5.28191 -19.8724,-9.27909 -30.5129,-11.83429 -0.4486,-0.099 -1.2466,-0.30293 -1.8361,-0.42899 -8.9697,-2.03234 -18.1633,-3.02624 -27.3572,-3.08663 z" />
    <path
       id="path11"
       style="display:inline;fill:#000000;fill-opacity:1;stroke-width:0.557611"
       inkscape:label="NOTCH"
       d="m 1232.2878,349.20443 c -1.7749,0 -3.506,0.0587 -5.1774,0.16981 -1.6713,0.11108 -3.2832,0.27348 -4.8173,0.48459 -1.5341,0.2111 -2.9908,0.47027 -4.3538,0.77036 -1.363,0.30008 -2.6329,0.645 -3.791,1.02302 -1.1581,0.37802 -2.2052,0.78933 -3.1246,1.23424 -0.9193,0.44492 -1.7123,0.91985 -2.359,1.42062 -0.6467,0.50076 -1.1455,1.02831 -1.4858,1.57387 -0.3403,0.54557 -0.5215,1.11051 -0.5215,1.68983 v 0.91947 c -0.012,0.0521 -0.017,0.14044 -0.1531,0.35205 -0.085,0.13185 -0.2083,0.28393 -0.3807,0.45145 -0.1726,0.16753 -0.397,0.35126 -0.6871,0.53429 -0.2901,0.18303 -0.6467,0.36834 -1.0843,0.54671 -0.4376,0.17836 -0.9575,0.34762 -1.5726,0.50115 -0.6152,0.15354 -1.3253,0.28908 -2.148,0.39761 -0.4114,0.0542 -0.8472,0.10162 -1.3161,0.14082 -0.4689,0.0393 -0.9722,0.0736 -1.5023,0.0953 -0.051,0.002 -0.066,0.002 -0.1159,0.004 0.05,0.008 0.065,0.0216 0.1159,0.029 0.5301,0.076 1.0334,0.1856 1.5023,0.32306 0.4689,0.13747 0.9047,0.30274 1.3161,0.49287 0.8227,0.38026 1.5328,0.85783 2.148,1.39577 0.6151,0.53793 1.135,1.1353 1.5726,1.76024 0.4376,0.62495 0.7942,1.27635 1.0843,1.91763 0.2901,0.64129 0.5145,1.27268 0.6871,1.85965 0.1724,0.58696 0.2957,1.12847 0.3807,1.59043 0.1365,0.74141 0.1414,1.04352 0.1531,1.22596 v 3.22643 c 0,2.02979 0.1812,4.01119 0.5215,5.92271 0.3403,1.9115 0.8391,3.75399 1.4858,5.50853 0.6467,1.75454 1.4397,3.41953 2.359,4.97838 0.9194,1.55887 1.9665,3.01193 3.1246,4.33642 1.1581,1.32449 2.428,2.52291 3.791,3.57433 1.363,1.05142 2.8197,1.95664 4.3538,2.69628 1.5341,0.73965 3.146,1.31308 4.8173,1.70226 1.6714,0.38917 3.4025,0.59227 5.1774,0.59227 h 236.7203 c 1.7748,0 3.5061,-0.2031 5.1774,-0.59227 1.6713,-0.38918 3.2832,-0.96261 4.8173,-1.70226 1.5341,-0.73964 2.9908,-1.64486 4.3538,-2.69628 1.363,-1.05142 2.6329,-2.24984 3.791,-3.57433 1.1581,-1.32449 2.2053,-2.77755 3.1246,-4.33642 0.9193,-1.55885 1.7082,-3.22384 2.3549,-4.97838 0.6467,-1.75454 1.1496,-3.59703 1.4899,-5.50853 0.3403,-1.91152 0.5173,-3.89292 0.5173,-5.92271 v -3.22643 c 0.012,-0.18244 0.02,-0.48455 0.1573,-1.22596 0.085,-0.46196 0.2081,-1.00347 0.3807,-1.59043 0.1726,-0.58697 0.3971,-1.21836 0.6871,-1.85965 0.2901,-0.64128 0.6467,-1.29268 1.0843,-1.91763 0.4377,-0.62494 0.9534,-1.22231 1.5685,-1.76024 0.6152,-0.53794 1.3295,-1.01551 2.1521,-1.39577 0.4114,-0.19013 0.8513,-0.3554 1.3202,-0.49287 0.4689,-0.13746 0.9639,-0.24711 1.494,-0.32306 0.051,-0.007 0.07,-0.0215 0.1201,-0.029 -0.05,-0.002 -0.069,-0.002 -0.1201,-0.004 -0.5301,-0.0217 -1.0251,-0.0561 -1.494,-0.0953 -0.4689,-0.0392 -0.9088,-0.0865 -1.3202,-0.14082 -0.8226,-0.10853 -1.5369,-0.24407 -2.1521,-0.39761 -0.6151,-0.15353 -1.1308,-0.32279 -1.5685,-0.50115 -0.4376,-0.17837 -0.7942,-0.36368 -1.0843,-0.54671 -0.29,-0.18303 -0.5145,-0.36676 -0.6871,-0.53429 -0.1726,-0.16752 -0.2957,-0.3196 -0.3807,-0.45145 -0.1369,-0.21161 -0.1453,-0.29995 -0.1573,-0.35205 v -0.91947 c 0,-0.57932 -0.177,-1.14426 -0.5173,-1.68983 -0.3403,-0.54556 -0.8432,-1.07311 -1.4899,-1.57387 -0.6467,-0.50077 -1.4356,-0.9757 -2.3549,-1.42062 -0.9193,-0.44491 -1.9665,-0.85622 -3.1246,-1.23424 -1.1581,-0.37802 -2.428,-0.72294 -3.791,-1.02302 -1.363,-0.30009 -2.8197,-0.55926 -4.3538,-0.77036 -1.5341,-0.21111 -3.146,-0.37351 -4.8173,-0.48459 -1.6713,-0.1111 -3.4026,-0.16981 -5.1774,-0.16981 z" />
    <circle
       style="fill:#1a1a1a;fill-opacity:1"
       id="path20"
       cx="1350.6477"
       cy="350.97763"
       r="27.792881"
       inkscape:label="CAM2" />
    <circle
       style="fill:#000000;fill-opacity:1"
       id="circle20"
       cx="1350.6477"
       cy="350.97763"
       r="20.879505"
       inkscape:label="CAM1" />
  </g>
</svg>
