<?xml version="1.0" encoding="UTF-8" standalone="no"?>
<!-- Created with Inkscape (http://www.inkscape.org/) -->

<svg
   version="1.1"
   id="svg1"
   width="436.66071"
   height="956.89185"
   viewBox="0 0 436.66071 956.89185"
   sodipodi:docname="ComfyUI_temp_oqztj_00015_.png"
   inkscape:export-filename="../Imagens/PHONE.svg"
   inkscape:export-xdpi="96"
   inkscape:export-ydpi="96"
   xmlns:inkscape="http://www.inkscape.org/namespaces/inkscape"
   xmlns:sodipodi="http://sodipodi.sourceforge.net/DTD/sodipodi-0.dtd"
   xmlns="http://www.w3.org/2000/svg"
   xmlns:svg="http://www.w3.org/2000/svg">
  <defs
     id="defs1" />
  <sodipodi:namedview
     id="namedview1"
     pagecolor="#ffffff"
     bordercolor="#000000"
     borderopacity="0.25"
     inkscape:showpageshadow="2"
     inkscape:pageopacity="0.0"
     inkscape:pagecheckerboard="0"
     inkscape:deskcolor="#d1d1d1"
     showguides="true">
    <sodipodi:guide
       position="1814.6116,188.33544"
       orientation="0,-1"
       id="guide22"
       inkscape:locked="false" />
  </sodipodi:namedview>
  <g
     inkscape:groupmode="layer"
     id="layer1"
     inkscape:label="ALL"
     transform="matrix(0.47192778,0,0,0.47156967,-419.07829,-170.47988)">
    <rect
       style="display:inline;fill:#000000;fill-opacity:1"
       id="rect2"
       width="925.2702"
       height="2029.1633"
       x="888.01361"
       y="361.51578"
       rx="107.64285"
       inkscape:label="screen" />
    <path
       d="m 978.92578,305.69531 c -5.19374,0 -10.3241,0.26121 -15.37891,0.77149 -5.0548,0.51027 -10.03271,1.26982 -14.92382,2.26562 -4.89111,0.9958 -9.69383,2.22703 -14.39649,3.6836 -4.70265,1.45656 -9.30547,3.13867 -13.79492,5.03125 -4.48945,1.89257 -8.8657,3.99695 -13.11719,6.30078 -4.25148,2.30383 -8.37842,4.80576 -12.36718,7.49609 -3.98877,2.69033 -7.83973,5.56902 -11.54102,8.62109 -3.70129,3.05208 -7.25352,6.27891 -10.64258,9.66797 -3.38906,3.38906 -6.61589,6.93934 -9.66797,10.64063 -3.05207,3.70129 -5.92881,7.55225 -8.61914,11.54101 -2.69033,3.98877 -5.19421,8.11571 -7.49804,12.36719 -2.30384,4.25149 -4.40821,8.62774 -6.30079,13.11719 -1.89257,4.48945 -3.57273,9.09226 -5.02929,13.79492 -1.45657,4.70266 -2.68975,9.50538 -3.68555,14.39648 -0.9958,4.89111 -1.75535,9.87098 -2.26562,14.92579 -0.51028,5.0548 -0.77149,10.18516 -0.77149,15.3789 V 2297.4785 c 0,5.1938 0.26121,10.3241 0.77149,15.3789 0.51027,5.0548 1.26982,10.0347 2.26562,14.9258 0.9958,4.8911 2.22898,9.6938 3.68555,14.3965 1.45656,4.7026 3.13672,9.3055 5.02929,13.7949 1.89258,4.4895 3.99695,8.8657 6.30079,13.1172 2.30383,4.2515 4.80771,8.3765 7.49804,12.3652 2.69033,3.9888 5.56707,7.8417 8.61914,11.543 3.05208,3.7013 6.27891,7.2516 9.66797,10.6406 3.38906,3.3891 6.94129,6.6159 10.64258,9.668 3.70129,3.0521 7.55225,5.9288 11.54102,8.6191 3.98876,2.6904 8.1157,5.1943 12.36718,7.4981 4.25149,2.3038 8.62774,4.4082 13.11719,6.3008 4.48945,1.8925 9.09227,3.5727 13.79492,5.0293 4.70266,1.4565 9.50538,2.6897 14.39649,3.6855 4.89111,0.9958 9.86902,1.7554 14.92382,2.2656 5.05481,0.5103 10.18517,0.7715 15.37891,0.7715 h 739.25002 c 5.1937,0 10.3241,-0.2612 15.3789,-0.7715 5.0548,-0.5102 10.0327,-1.2698 14.9238,-2.2656 4.8911,-0.9958 9.6958,-2.229 14.3985,-3.6855 4.7026,-1.4566 9.3035,-3.1368 13.7929,-5.0293 4.4895,-1.8926 8.8677,-3.997 13.1192,-6.3008 4.2514,-2.3038 8.3764,-4.8077 12.3652,-7.4981 3.9888,-2.6903 7.8397,-5.567 11.541,-8.6191 3.7013,-3.0521 7.2535,-6.2789 10.6426,-9.668 3.389,-3.389 6.6159,-6.9393 9.668,-10.6406 3.052,-3.7013 5.9288,-7.5542 8.6191,-11.543 2.6903,-3.9887 5.1942,-8.1137 7.498,-12.3652 2.3039,-4.2515 4.4083,-8.6277 6.3008,-13.1172 1.8926,-4.4894 3.5728,-9.0923 5.0293,-13.7949 1.4566,-4.7027 2.6898,-9.5054 3.6856,-14.3965 0.9958,-4.8911 1.7553,-9.871 2.2656,-14.9258 0.5103,-5.0548 0.7715,-10.1851 0.7715,-15.3789 V 455.69531 c 0,-5.19374 -0.2612,-10.3241 -0.7715,-15.3789 -0.5103,-5.05481 -1.2698,-10.03468 -2.2656,-14.92579 -0.9958,-4.8911 -2.229,-9.69382 -3.6856,-14.39648 -1.4565,-4.70266 -3.1367,-9.30547 -5.0293,-13.79492 -1.8925,-4.48945 -3.9969,-8.8657 -6.3008,-13.11719 -2.3038,-4.25148 -4.8077,-8.37842 -7.498,-12.36719 -2.6903,-3.98876 -5.5671,-7.83972 -8.6191,-11.54101 -3.0521,-3.70129 -6.279,-7.25157 -9.668,-10.64063 -3.3891,-3.38906 -6.9413,-6.61589 -10.6426,-9.66797 -3.7013,-3.05207 -7.5522,-5.93076 -11.541,-8.62109 -3.9888,-2.69033 -8.1138,-5.19226 -12.3652,-7.49609 -4.2515,-2.30383 -8.6297,-4.40821 -13.1192,-6.30078 -4.4894,-1.89258 -9.0903,-3.57469 -13.7929,-5.03125 -4.7027,-1.45657 -9.5074,-2.6878 -14.3985,-3.6836 -4.8911,-0.9958 -9.869,-1.75535 -14.9238,-2.26562 -5.0548,-0.51028 -10.1852,-0.77149 -15.3789,-0.77149 z m 16.73047,55.82031 h 709.98435 c 7.4543,0 14.7282,0.75048 21.7481,2.17969 7.0199,1.42921 13.787,3.53761 20.2304,6.25391 6.4435,2.7163 12.5623,6.04108 18.2872,9.90234 5.7248,3.86127 11.0538,8.25894 15.9179,13.12305 4.8641,4.86411 9.2638,10.19314 13.125,15.91797 3.8613,5.72483 7.1861,11.84563 9.9024,18.28906 2.7163,6.44343 4.8227,13.21056 6.2519,20.23047 1.4292,7.0199 2.1797,14.29183 2.1797,21.74609 v 1813.8789 c 0,7.4543 -0.7505,14.7262 -2.1797,21.7461 -1.4292,7.0199 -3.5356,13.787 -6.2519,20.2305 -2.7163,6.4434 -6.0411,12.5623 -9.9024,18.2871 -3.8612,5.7248 -8.2609,11.0558 -13.125,15.9199 -4.8641,4.8641 -10.1931,9.2618 -15.9179,13.1231 -5.7249,3.8612 -11.8437,7.186 -18.2872,9.9023 -6.4434,2.7163 -13.2105,4.8247 -20.2304,6.2539 -7.0199,1.4292 -14.2938,2.1797 -21.7481,2.1797 H 995.65625 c -7.45426,0 -14.72619,-0.7505 -21.74609,-2.1797 -7.01991,-1.4292 -13.78705,-3.5376 -20.23047,-6.2539 -6.44343,-2.7163 -12.56424,-6.0411 -18.28907,-9.9023 -5.72482,-3.8613 -11.05386,-8.259 -15.91796,-13.1231 -4.86411,-4.8641 -9.26179,-10.1951 -13.12305,-15.9199 -3.86126,-5.7248 -7.18605,-11.8437 -9.90234,-18.2871 -2.7163,-6.4435 -4.8247,-13.2106 -6.25391,-20.2305 -1.42921,-7.0199 -2.17969,-14.2918 -2.17969,-21.7461 V 469.1582 c 0,-7.45426 0.75048,-14.72619 2.17969,-21.74609 1.42921,-7.01991 3.53761,-13.78704 6.25391,-20.23047 2.71629,-6.44343 6.04108,-12.56423 9.90234,-18.28906 3.86126,-5.72483 8.25894,-11.05386 13.12305,-15.91797 4.8641,-4.86411 10.19314,-9.26178 15.91796,-13.12305 5.72483,-3.86126 11.84564,-7.18604 18.28907,-9.90234 6.44342,-2.7163 13.21056,-4.8247 20.23047,-6.25391 7.0199,-1.42921 14.29183,-2.17969 21.74609,-2.17969 z"
       style="display:inline"
       id="path22"
       inkscape:label="BODY" />
    <path
       id="path11"
       style="display:inline;fill:#000000;fill-opacity:1;stroke-width:0.557611"
       d="m 1197.6957,361.51562 c 0.05,0.008 0.068,0.0194 0.1192,0.0268 0.5301,0.076 1.0301,0.18515 1.499,0.32261 0.4689,0.13747 0.9074,0.30254 1.3188,0.49267 0.8227,0.38026 1.5336,0.85738 2.1488,1.39532 0.6151,0.53793 1.1337,1.13725 1.5713,1.76219 0.4376,0.62495 0.7955,1.27581 1.0856,1.9171 0.2901,0.64129 0.5138,1.27306 0.6864,1.86003 0.1725,0.58696 0.2928,1.12901 0.3778,1.59098 0.1365,0.74141 0.1452,1.04283 0.1569,1.22527 v 0 3.22622 c 0,2.02979 0.178,4.00983 0.5183,5.92135 0.3403,1.91151 0.8422,3.7545 1.4889,5.50904 0.6467,1.75454 1.4382,3.4214 2.3575,4.98026 0.9194,1.55887 1.9663,3.00937 3.1244,4.33386 1.1581,1.32449 2.4274,2.52305 3.7904,3.57447 1.363,1.05142 2.8205,1.95664 4.3546,2.69628 1.5341,0.73965 3.1456,1.31362 4.8169,1.7028 1.6714,0.38917 3.4026,0.59283 5.1775,0.59283 h 236.7196 c 1.7748,0 3.5061,-0.20366 5.1774,-0.59283 1.6713,-0.38918 3.2828,-0.96315 4.8169,-1.7028 1.5341,-0.73964 2.9916,-1.64486 4.3546,-2.69628 1.363,-1.05142 2.6323,-2.24998 3.7904,-3.57447 1.1581,-1.32449 2.2051,-2.77499 3.1244,-4.33386 0.9193,-1.55886 1.7108,-3.22572 2.3575,-4.98026 0.6467,-1.75454 1.1486,-3.59753 1.4889,-5.50904 0.3403,-1.91152 0.5183,-3.89156 0.5183,-5.92135 v -3.22622 c 0.012,-0.18244 0.02,-0.48386 0.1569,-1.22527 0.085,-0.46197 0.2062,-1.00402 0.3788,-1.59098 0.1726,-0.58697 0.3964,-1.21874 0.6864,-1.86003 0.2901,-0.64129 0.6469,-1.29215 1.0845,-1.9171 0.4377,-0.62494 0.9563,-1.22426 1.5714,-1.76219 0.6152,-0.53794 1.3272,-1.01506 2.1498,-1.39532 0.4114,-0.19013 0.8499,-0.3552 1.3188,-0.49267 0.4689,-0.13746 0.9679,-0.24666 1.498,-0.32261 0.051,-0.007 0.069,-0.0193 0.1192,-0.0268 h -8.9638 -287.9765 z"
       inkscape:label="NOTCH" />
    <circle
       style="fill:#1a1a1a;fill-opacity:1"
       id="path20"
       cx="1350.6477"
       cy="350.97763"
       r="27.792881"
       inkscape:label="CAM2" />
    <circle
       style="fill:#000000;fill-opacity:1"
       id="circle20"
       cx="1350.6477"
       cy="350.97763"
       r="20.879505"
       inkscape:label="CAM1" />
  </g>
</svg>
